<?xml version="1.0" encoding="utf-8"?>
<!-- Generator: Adobe Illustrator 16.0.0, SVG Export Plug-In . SVG Version: 6.00 Build 0)  -->
<!DOCTYPE svg PUBLIC "-//W3C//DTD SVG 1.1//EN" "http://www.w3.org/Graphics/SVG/1.1/DTD/svg11.dtd">
<svg version="1.1" id="Layer_1" xmlns="http://www.w3.org/2000/svg" xmlns:xlink="http://www.w3.org/1999/xlink" x="0px" y="0px"
	 width="250px" height="250px" viewBox="0 0 250 250" enable-background="new 0 0 250 250" xml:space="preserve">
<g>
	<path fill="#2A81BA" d="M97.91,74.114c0,14.67-11.893,26.564-26.564,26.564c-14.671,0-26.564-11.895-26.564-26.564
		c0-14.671,11.893-26.565,26.564-26.565C86.017,47.549,97.91,59.443,97.91,74.114L97.91,74.114z M97.91,74.114"/>
	<path fill="#E7E9ED" d="M71.471,85.534c-0.041,0-0.083,0.042-0.167,0.042c-0.042,0-0.083-0.042-0.167-0.042H71.471z M71.471,85.534
		"/>
	<path fill="#E7E9ED" d="M92.723,89.801c-4.811,6.566-12.634,10.877-21.419,10.877c-8.784,0-16.565-4.268-21.418-10.877
		c3.765-4.017,8.869-6.15,13.136-7.238c-0.376,3.054,1.213,7.154,1.254,7.028c1.59-3.681,6.986-4.015,6.986-4.015
		s5.397,0.292,7.029,4.015c0.042,0.084,1.631-3.974,1.255-7.028C83.854,83.651,88.958,85.785,92.723,89.801L92.723,89.801z
		 M92.723,89.801"/>
	<path fill="#FFD15C" d="M77.915,79.76c0,0.544-0.335,3.431-6.443,5.773h-0.334c-6.108-2.343-6.442-5.229-6.442-5.773
		c0.042-1.087,0.293-2.175,0.753-3.179c1.673,1.883,3.682,3.138,5.856,3.138c2.134,0,4.184-1.213,5.857-3.138
		C77.621,77.585,77.915,78.673,77.915,79.76L77.915,79.76z M77.915,79.76"/>
	<path fill="#F15640" d="M74.944,86.496l-1.338,2.676h-4.602l-1.338-2.676c1.841-0.795,3.639-0.92,3.639-0.92
		S73.145,85.701,74.944,86.496L74.944,86.496z M74.944,86.496"/>
	<path fill="#F3715B" d="M67.581,100.427c1.214,0.167,2.468,0.251,3.765,0.251c1.255,0,2.51-0.084,3.765-0.251l-1.464-11.212h-4.602
		L67.581,100.427z M67.581,100.427"/>
	<path fill="#FFFFFF" d="M77.915,79.677c0,0,0.292,3.346-6.611,5.899c0,0,5.397,0.292,7.029,4.015
		C78.374,89.759,81.511,81.643,77.915,79.677L77.915,79.677z M77.915,79.677"/>
	<path fill="#FFFFFF" d="M64.695,79.677c-3.556,1.966-0.46,10.04-0.376,9.914c1.589-3.681,7.028-4.015,7.028-4.015
		C64.402,83.023,64.695,79.677,64.695,79.677L64.695,79.677z M64.695,79.677"/>
	<path fill="#F8B54D" d="M77.496,77.417c-1.757,1.882-3.849,3.096-6.192,3.096c-2.342,0-4.434-1.214-6.191-3.096
		c0.084-0.292,0.209-0.585,0.335-0.836c1.673,1.883,3.682,3.138,5.856,3.138c2.176,0,4.184-1.213,5.857-3.138
		C77.286,76.833,77.412,77.125,77.496,77.417L77.496,77.417z M77.496,77.417"/>
	<path fill="#FFD15C" d="M82.724,71.018c-0.877,1.464-2.216,2.342-3.22,2.174c-2.008,3.724-4.937,6.485-8.2,6.485
		c-3.263,0-6.191-2.803-8.199-6.485c-1.004,0.126-2.342-0.71-3.221-2.174c-1.046-1.715-1.088-3.599-0.083-4.226
		c0.251-0.125,0.501-0.208,0.795-0.167c0.669,1.715,1.589,2.761,1.589,2.761c-0.962-5.313,2.97-5.899,2.301-11.002
		c0,0,2.468,5.48,9.538,1.631l-0.544,1.046c9.873-2.217,6.568,9.412,6.485,9.705c1.129-1.423,1.84-2.845,2.259-4.142
		c0.167,0,0.376,0.084,0.501,0.167C83.812,67.379,83.771,69.303,82.724,71.018L82.724,71.018z M82.724,71.018"/>
	<path fill="#334B5E" d="M76.994,52.862c0.795-0.083,2.092,0.627,2.092,0.627c-3.556-4.059-9.37-1.464-9.37-1.464
		c1.965-1.674,3.723-1.506,3.723-1.506c-8.325-1.254-9.748,3.723-9.748,3.723c-0.376-0.585-0.376-1.421-0.334-1.84
		c-0.586,1.004,0.042,3.012,0.042,3.012c-0.585-1.464-2.635-1.213-2.635-1.213c1.757,0.292,2.05,1.38,2.05,1.38
		c-4.393,1.631-3.641,6.192-3.641,6.192l1.046-1.256c-1.296,4.979,2.008,8.827,2.008,8.827c-0.962-5.312,2.971-5.898,2.301-11.001
		c0,0,2.468,5.48,9.539,1.631l-0.544,1.046c9.998-2.259,6.484,9.747,6.484,9.747c3.556-4.518,3.012-9.161,3.012-9.161l0.418,1.673
		C84.565,55.75,76.994,52.862,76.994,52.862L76.994,52.862z M76.994,52.862"/>
</g>
<rect x="112.595" y="57.493" fill="#B2B3B3" width="29.958" height="11.04"/>
<rect x="147.194" y="57.493" fill="#B2B3B3" width="91.139" height="11.04"/>
<rect x="11.039" y="29.981" fill="#E2E2E2" width="117.59" height="11.04"/>
<rect x="135.237" y="29.981" fill="#E2E2E2" width="103.096" height="11.04"/>
<rect x="112.595" y="72.552" fill="#B2B3B3" width="125.738" height="7.443"/>
<rect x="112.595" y="83.291" fill="#B2B3B3" width="45.992" height="7.443"/>
<rect x="163.198" y="83.291" fill="#B2B3B3" width="49.818" height="7.443"/>
<rect x="216.232" y="83.291" fill="#B2B3B3" width="22.101" height="7.443"/>
<g>
	<path fill="#2A81BA" d="M98.224,141.513c0,14.669-11.893,26.563-26.564,26.563c-14.671,0-26.564-11.895-26.564-26.563
		c0-14.672,11.893-26.565,26.564-26.565C86.331,114.947,98.224,126.841,98.224,141.513L98.224,141.513z M98.224,141.513"/>
	<path fill="#E7E9ED" d="M71.785,152.932c-0.041,0-0.083,0.043-0.167,0.043c-0.042,0-0.083-0.043-0.167-0.043H71.785z
		 M71.785,152.932"/>
	<path fill="#E7E9ED" d="M93.037,157.199c-4.811,6.566-12.634,10.877-21.419,10.877c-8.784,0-16.565-4.268-21.418-10.877
		c3.765-4.016,8.869-6.149,13.136-7.237c-0.376,3.054,1.213,7.153,1.254,7.028c1.59-3.682,6.986-4.016,6.986-4.016
		s5.397,0.293,7.029,4.016c0.042,0.084,1.631-3.975,1.255-7.028C84.168,151.05,89.272,153.184,93.037,157.199L93.037,157.199z
		 M93.037,157.199"/>
	<path fill="#FFD15C" d="M78.229,147.158c0,0.545-0.335,3.432-6.443,5.773h-0.334c-6.108-2.342-6.442-5.229-6.442-5.773
		c0.042-1.087,0.293-2.174,0.753-3.179c1.673,1.884,3.682,3.138,5.856,3.138c2.134,0,4.184-1.213,5.857-3.138
		C77.935,144.984,78.229,146.071,78.229,147.158L78.229,147.158z M78.229,147.158"/>
	<path fill="#F15640" d="M75.258,153.895l-1.338,2.676h-4.602l-1.338-2.676c1.841-0.795,3.639-0.92,3.639-0.92
		S73.459,153.1,75.258,153.895L75.258,153.895z M75.258,153.895"/>
	<path fill="#F3715B" d="M67.895,167.825c1.214,0.167,2.468,0.251,3.765,0.251c1.255,0,2.51-0.084,3.765-0.251l-1.464-11.212h-4.602
		L67.895,167.825z M67.895,167.825"/>
	<path fill="#FFFFFF" d="M78.229,147.076c0,0,0.292,3.346-6.611,5.898c0,0,5.397,0.293,7.029,4.016
		C78.688,157.158,81.825,149.041,78.229,147.076L78.229,147.076z M78.229,147.076"/>
	<path fill="#FFFFFF" d="M65.009,147.076c-3.556,1.965-0.46,10.039-0.376,9.914c1.589-3.682,7.028-4.016,7.028-4.016
		C64.716,150.422,65.009,147.076,65.009,147.076L65.009,147.076z M65.009,147.076"/>
	<path fill="#F8B54D" d="M77.81,144.816c-1.757,1.882-3.849,3.096-6.192,3.096c-2.342,0-4.434-1.214-6.191-3.096
		c0.084-0.293,0.209-0.586,0.335-0.837c1.673,1.884,3.682,3.138,5.856,3.138c2.176,0,4.184-1.213,5.857-3.138
		C77.6,144.23,77.726,144.523,77.81,144.816L77.81,144.816z M77.81,144.816"/>
	<path fill="#FFD15C" d="M83.038,138.417c-0.877,1.463-2.216,2.342-3.22,2.174c-2.008,3.724-4.937,6.485-8.2,6.485
		c-3.263,0-6.191-2.804-8.199-6.485c-1.004,0.126-2.342-0.711-3.221-2.174c-1.046-1.716-1.088-3.6-0.083-4.227
		c0.251-0.125,0.501-0.209,0.795-0.167c0.669,1.716,1.589,2.761,1.589,2.761c-0.962-5.313,2.97-5.898,2.301-11.002
		c0,0,2.468,5.48,9.538,1.631l-0.544,1.047c9.873-2.217,6.568,9.412,6.485,9.705c1.129-1.423,1.84-2.845,2.259-4.142
		c0.167,0,0.376,0.084,0.501,0.167C84.126,134.777,84.085,136.701,83.038,138.417L83.038,138.417z M83.038,138.417"/>
	<path fill="#334B5E" d="M77.308,120.261c0.795-0.083,2.092,0.627,2.092,0.627c-3.556-4.059-9.37-1.464-9.37-1.464
		c1.965-1.674,3.723-1.506,3.723-1.506c-8.325-1.254-9.748,3.722-9.748,3.722c-0.376-0.585-0.376-1.42-0.334-1.839
		c-0.586,1.004,0.042,3.011,0.042,3.011c-0.585-1.463-2.635-1.213-2.635-1.213c1.757,0.293,2.05,1.381,2.05,1.381
		c-4.393,1.631-3.641,6.191-3.641,6.191l1.046-1.256c-1.296,4.979,2.008,8.827,2.008,8.827c-0.962-5.312,2.971-5.897,2.301-11.001
		c0,0,2.468,5.48,9.539,1.631l-0.544,1.046c9.998-2.259,6.484,9.747,6.484,9.747c3.556-4.518,3.012-9.161,3.012-9.161l0.418,1.673
		C84.879,123.147,77.308,120.261,77.308,120.261L77.308,120.261z M77.308,120.261"/>
</g>
<circle fill="#E8E8E8" stroke="#898989" stroke-width="2" stroke-miterlimit="10" cx="22.392" cy="141.511" r="11.039"/>
<rect x="112.909" y="124.892" fill="#B2B3B3" width="29.958" height="11.039"/>
<rect x="147.508" y="124.892" fill="#B2B3B3" width="91.139" height="11.039"/>
<rect x="112.909" y="139.95" fill="#B2B3B3" width="125.738" height="7.443"/>
<rect x="112.909" y="150.689" fill="#B2B3B3" width="45.992" height="7.443"/>
<rect x="163.512" y="150.689" fill="#B2B3B3" width="49.818" height="7.443"/>
<rect x="216.547" y="150.689" fill="#B2B3B3" width="22.1" height="7.443"/>
<g>
	<path fill="#2A81BA" d="M98.224,204.513c0,14.669-11.893,26.563-26.564,26.563c-14.671,0-26.564-11.895-26.564-26.563
		c0-14.672,11.893-26.565,26.564-26.565C86.331,177.947,98.224,189.841,98.224,204.513L98.224,204.513z M98.224,204.513"/>
	<path fill="#E7E9ED" d="M71.785,215.932c-0.041,0-0.083,0.043-0.167,0.043c-0.042,0-0.083-0.043-0.167-0.043H71.785z
		 M71.785,215.932"/>
	<path fill="#E7E9ED" d="M93.037,220.199c-4.811,6.566-12.634,10.877-21.419,10.877c-8.784,0-16.565-4.268-21.418-10.877
		c3.765-4.016,8.869-6.149,13.136-7.237c-0.376,3.054,1.213,7.153,1.254,7.028c1.59-3.682,6.986-4.016,6.986-4.016
		s5.397,0.293,7.029,4.016c0.042,0.084,1.631-3.975,1.255-7.028C84.168,214.05,89.272,216.184,93.037,220.199L93.037,220.199z
		 M93.037,220.199"/>
	<path fill="#FFD15C" d="M78.229,210.158c0,0.545-0.335,3.432-6.443,5.773h-0.334c-6.108-2.342-6.442-5.229-6.442-5.773
		c0.042-1.087,0.293-2.174,0.753-3.179c1.673,1.884,3.682,3.138,5.856,3.138c2.134,0,4.184-1.213,5.857-3.138
		C77.935,207.984,78.229,209.071,78.229,210.158L78.229,210.158z M78.229,210.158"/>
	<path fill="#F15640" d="M75.258,216.895l-1.338,2.676h-4.602l-1.338-2.676c1.841-0.795,3.639-0.92,3.639-0.92
		S73.459,216.1,75.258,216.895L75.258,216.895z M75.258,216.895"/>
	<path fill="#F3715B" d="M67.895,230.825c1.214,0.167,2.468,0.251,3.765,0.251c1.255,0,2.51-0.084,3.765-0.251l-1.464-11.212h-4.602
		L67.895,230.825z M67.895,230.825"/>
	<path fill="#FFFFFF" d="M78.229,210.076c0,0,0.292,3.346-6.611,5.898c0,0,5.397,0.293,7.029,4.016
		C78.688,220.158,81.825,212.041,78.229,210.076L78.229,210.076z M78.229,210.076"/>
	<path fill="#FFFFFF" d="M65.009,210.076c-3.556,1.965-0.46,10.039-0.376,9.914c1.589-3.682,7.028-4.016,7.028-4.016
		C64.716,213.422,65.009,210.076,65.009,210.076L65.009,210.076z M65.009,210.076"/>
	<path fill="#F8B54D" d="M77.81,207.816c-1.757,1.882-3.849,3.096-6.192,3.096c-2.342,0-4.434-1.214-6.191-3.096
		c0.084-0.293,0.209-0.586,0.335-0.837c1.673,1.884,3.682,3.138,5.856,3.138c2.176,0,4.184-1.213,5.857-3.138
		C77.6,207.23,77.726,207.523,77.81,207.816L77.81,207.816z M77.81,207.816"/>
	<path fill="#FFD15C" d="M83.038,201.417c-0.877,1.463-2.216,2.342-3.22,2.174c-2.008,3.724-4.937,6.485-8.2,6.485
		c-3.263,0-6.191-2.804-8.199-6.485c-1.004,0.126-2.342-0.711-3.221-2.174c-1.046-1.716-1.088-3.6-0.083-4.227
		c0.251-0.125,0.501-0.209,0.795-0.167c0.669,1.716,1.589,2.761,1.589,2.761c-0.962-5.313,2.97-5.898,2.301-11.002
		c0,0,2.468,5.48,9.538,1.631l-0.544,1.047c9.873-2.217,6.568,9.412,6.485,9.705c1.129-1.423,1.84-2.845,2.259-4.142
		c0.167,0,0.376,0.084,0.501,0.167C84.126,197.777,84.085,199.701,83.038,201.417L83.038,201.417z M83.038,201.417"/>
	<path fill="#334B5E" d="M77.308,183.261c0.795-0.083,2.092,0.628,2.092,0.628c-3.556-4.059-9.37-1.465-9.37-1.465
		c1.965-1.674,3.723-1.506,3.723-1.506c-8.325-1.255-9.748,3.722-9.748,3.722c-0.376-0.585-0.376-1.421-0.334-1.839
		c-0.586,1.004,0.042,3.011,0.042,3.011c-0.585-1.463-2.635-1.213-2.635-1.213c1.757,0.293,2.05,1.381,2.05,1.381
		c-4.393,1.631-3.641,6.191-3.641,6.191l1.046-1.256c-1.296,4.979,2.008,8.827,2.008,8.827c-0.962-5.312,2.971-5.897,2.301-11.001
		c0,0,2.468,5.48,9.539,1.631l-0.544,1.046c9.998-2.259,6.484,9.747,6.484,9.747c3.556-4.518,3.012-9.161,3.012-9.161l0.418,1.673
		C84.879,186.147,77.308,183.261,77.308,183.261L77.308,183.261z M77.308,183.261"/>
</g>
<circle fill="#E8E8E8" stroke="#898989" stroke-width="2" stroke-miterlimit="10" cx="22.392" cy="204.511" r="11.039"/>
<rect x="112.909" y="187.892" fill="#B2B3B3" width="29.958" height="11.039"/>
<rect x="147.508" y="187.892" fill="#B2B3B3" width="91.139" height="11.039"/>
<rect x="112.909" y="202.95" fill="#B2B3B3" width="125.738" height="7.443"/>
<rect x="112.909" y="213.689" fill="#B2B3B3" width="45.992" height="7.443"/>
<rect x="163.512" y="213.689" fill="#B2B3B3" width="49.818" height="7.443"/>
<rect x="216.547" y="213.689" fill="#B2B3B3" width="22.1" height="7.443"/>
<rect fill="#348EC1" width="250" height="23.802"/>
<text transform="matrix(1 0 0 1 11.353 15.4229)" fill="#FFFFFF" font-family="'MyriadPro-Regular'" font-size="12">Create two or more  Elector</text>
<circle fill="none" stroke="#64BC46" stroke-miterlimit="10" cx="22.078" cy="74.113" r="11.039"/>
<g>
	<g>
		<path fill="#64BC46" d="M26.787,68.809c-0.888-0.492-2.006-0.172-2.497,0.715l-3.408,6.131l-1.95-1.949
			c-0.717-0.717-1.879-0.717-2.596,0c-0.717,0.717-0.717,1.879,0,2.596l3.672,3.672c0.347,0.348,0.815,0.539,1.297,0.539
			c0.084,0,0.17-0.006,0.254-0.02c0.57-0.078,1.07-0.422,1.35-0.926l4.589-8.26C27.992,70.42,27.672,69.303,26.787,68.809
			L26.787,68.809z M26.787,68.809"/>
	</g>
</g>
</svg>
