<!--?xml version="1.0" encoding="utf-8"?-->
<!-- Generator: Adobe Illustrator 16.0.0, SVG Export Plug-In . SVG Version: 6.00 Build 0)  -->

<svg version="1.1" id="Layer_1" xmlns="http://www.w3.org/2000/svg" xmlns:xlink="http://www.w3.org/1999/xlink" x="0px" y="0px" width="250px" height="250px" viewBox="0 0 250 250" enable-background="new 0 0 250 250" xml:space="preserve" style="">
<g>
	<path fill="#2A81BA" d="M97.91,74.114c0,14.67-11.893,26.564-26.564,26.564c-14.671,0-26.564-11.895-26.564-26.564
		c0-14.671,11.893-26.565,26.564-26.565C86.017,47.549,97.91,59.443,97.91,74.114L97.91,74.114z M97.91,74.114" class="IBOlxlaO_0"></path>
	<path fill="#E7E9ED" d="M71.471,85.534c-0.041,0-0.083,0.042-0.167,0.042c-0.042,0-0.083-0.042-0.167-0.042H71.471z M71.471,85.534
		" class="IBOlxlaO_1"></path>
	<path fill="#E7E9ED" d="M92.723,89.801c-4.811,6.566-12.634,10.877-21.419,10.877c-8.784,0-16.565-4.268-21.418-10.877
		c3.765-4.017,8.869-6.15,13.136-7.238c-0.376,3.054,1.213,7.154,1.254,7.028c1.59-3.681,6.986-4.015,6.986-4.015
		s5.397,0.292,7.029,4.015c0.042,0.084,1.631-3.974,1.255-7.028C83.854,83.651,88.958,85.785,92.723,89.801L92.723,89.801z
		 M92.723,89.801" class="IBOlxlaO_2"></path>
	<path fill="#FFD15C" d="M77.915,79.76c0,0.544-0.335,3.431-6.443,5.773h-0.334c-6.108-2.343-6.442-5.229-6.442-5.773
		c0.042-1.087,0.293-2.175,0.753-3.179c1.673,1.883,3.682,3.138,5.856,3.138c2.134,0,4.184-1.213,5.857-3.138
		C77.621,77.585,77.915,78.673,77.915,79.76L77.915,79.76z M77.915,79.76" class="IBOlxlaO_3"></path>
	<path fill="#F15640" d="M74.944,86.496l-1.338,2.676h-4.602l-1.338-2.676c1.841-0.795,3.639-0.92,3.639-0.92
		S73.145,85.701,74.944,86.496L74.944,86.496z M74.944,86.496" class="IBOlxlaO_4"></path>
	<path fill="#F3715B" d="M67.581,100.427c1.214,0.167,2.468,0.251,3.765,0.251c1.255,0,2.51-0.084,3.765-0.251l-1.464-11.212h-4.602
		L67.581,100.427z M67.581,100.427" class="IBOlxlaO_5"></path>
	<path fill="#FFFFFF" d="M77.915,79.677c0,0,0.292,3.346-6.611,5.899c0,0,5.397,0.292,7.029,4.015
		C78.374,89.759,81.511,81.643,77.915,79.677L77.915,79.677z M77.915,79.677" class="IBOlxlaO_6"></path>
	<path fill="#FFFFFF" d="M64.695,79.677c-3.556,1.966-0.46,10.04-0.376,9.914c1.589-3.681,7.028-4.015,7.028-4.015
		C64.402,83.023,64.695,79.677,64.695,79.677L64.695,79.677z M64.695,79.677" class="IBOlxlaO_7"></path>
	<path fill="#F8B54D" d="M77.496,77.417c-1.757,1.882-3.849,3.096-6.192,3.096c-2.342,0-4.434-1.214-6.191-3.096
		c0.084-0.292,0.209-0.585,0.335-0.836c1.673,1.883,3.682,3.138,5.856,3.138c2.176,0,4.184-1.213,5.857-3.138
		C77.286,76.833,77.412,77.125,77.496,77.417L77.496,77.417z M77.496,77.417" class="IBOlxlaO_8"></path>
	<path fill="#FFD15C" d="M82.724,71.018c-0.877,1.464-2.216,2.342-3.22,2.174c-2.008,3.724-4.937,6.485-8.2,6.485
		c-3.263,0-6.191-2.803-8.199-6.485c-1.004,0.126-2.342-0.71-3.221-2.174c-1.046-1.715-1.088-3.599-0.083-4.226
		c0.251-0.125,0.501-0.208,0.795-0.167c0.669,1.715,1.589,2.761,1.589,2.761c-0.962-5.313,2.97-5.899,2.301-11.002
		c0,0,2.468,5.48,9.538,1.631l-0.544,1.046c9.873-2.217,6.568,9.412,6.485,9.705c1.129-1.423,1.84-2.845,2.259-4.142
		c0.167,0,0.376,0.084,0.501,0.167C83.812,67.379,83.771,69.303,82.724,71.018L82.724,71.018z M82.724,71.018" class="IBOlxlaO_9"></path>
	<path fill="#334B5E" d="M76.994,52.862c0.795-0.083,2.092,0.627,2.092,0.627c-3.556-4.059-9.37-1.464-9.37-1.464
		c1.965-1.674,3.723-1.506,3.723-1.506c-8.325-1.254-9.748,3.723-9.748,3.723c-0.376-0.585-0.376-1.421-0.334-1.84
		c-0.586,1.004,0.042,3.012,0.042,3.012c-0.585-1.464-2.635-1.213-2.635-1.213c1.757,0.292,2.05,1.38,2.05,1.38
		c-4.393,1.631-3.641,6.192-3.641,6.192l1.046-1.256c-1.296,4.979,2.008,8.827,2.008,8.827c-0.962-5.312,2.971-5.898,2.301-11.001
		c0,0,2.468,5.48,9.539,1.631l-0.544,1.046c9.998-2.259,6.484,9.747,6.484,9.747c3.556-4.518,3.012-9.161,3.012-9.161l0.418,1.673
		C84.565,55.75,76.994,52.862,76.994,52.862L76.994,52.862z M76.994,52.862" class="IBOlxlaO_10"></path>
</g>
<path fill="#E8E8E8" stroke="#898989" stroke-width="2" stroke-miterlimit="10" d="M11.039,74.113A11.039,11.039 0,1,1 33.117,74.113A11.039,11.039 0,1,1 11.039,74.113" class="IBOlxlaO_11"></path>
<path fill="#B2B3B3" width="29.958" height="11.04" d="M112.595 57.493 L142.553 57.493 L142.553 68.533 L112.595 68.533 Z" class="IBOlxlaO_12"></path>
<path fill="#B2B3B3" width="91.139" height="11.04" d="M147.194 57.493 L238.33299999999997 57.493 L238.33299999999997 68.533 L147.194 68.533 Z" class="IBOlxlaO_13"></path>
<path fill="#E2E2E2" width="117.59" height="11.04" d="M11.039 29.981 L128.629 29.981 L128.629 41.021 L11.039 41.021 Z" class="IBOlxlaO_14"></path>
<path fill="#E2E2E2" width="103.096" height="11.04" d="M135.237 29.981 L238.333 29.981 L238.333 41.021 L135.237 41.021 Z" class="IBOlxlaO_15"></path>
<path fill="#B2B3B3" width="125.738" height="7.443" d="M112.595 72.552 L238.333 72.552 L238.333 79.995 L112.595 79.995 Z" class="IBOlxlaO_16"></path>
<path fill="#B2B3B3" width="45.992" height="7.443" d="M112.595 83.291 L158.587 83.291 L158.587 90.734 L112.595 90.734 Z" class="IBOlxlaO_17"></path>
<path fill="#B2B3B3" width="49.818" height="7.443" d="M163.198 83.291 L213.01600000000002 83.291 L213.01600000000002 90.734 L163.198 90.734 Z" class="IBOlxlaO_18"></path>
<path fill="#B2B3B3" width="22.101" height="7.443" d="M216.232 83.291 L238.333 83.291 L238.333 90.734 L216.232 90.734 Z" class="IBOlxlaO_19"></path>
<g>
	<path fill="#2A81BA" d="M98.224,141.513c0,14.669-11.893,26.563-26.564,26.563c-14.671,0-26.564-11.895-26.564-26.563
		c0-14.672,11.893-26.565,26.564-26.565C86.331,114.947,98.224,126.841,98.224,141.513L98.224,141.513z M98.224,141.513" class="IBOlxlaO_20"></path>
	<path fill="#E7E9ED" d="M71.785,152.932c-0.041,0-0.083,0.043-0.167,0.043c-0.042,0-0.083-0.043-0.167-0.043H71.785z
		 M71.785,152.932" class="IBOlxlaO_21"></path>
	<path fill="#E7E9ED" d="M93.037,157.199c-4.811,6.566-12.634,10.877-21.419,10.877c-8.784,0-16.565-4.268-21.418-10.877
		c3.765-4.016,8.869-6.149,13.136-7.237c-0.376,3.054,1.213,7.153,1.254,7.028c1.59-3.682,6.986-4.016,6.986-4.016
		s5.397,0.293,7.029,4.016c0.042,0.084,1.631-3.975,1.255-7.028C84.168,151.05,89.272,153.184,93.037,157.199L93.037,157.199z
		 M93.037,157.199" class="IBOlxlaO_22"></path>
	<path fill="#FFD15C" d="M78.229,147.158c0,0.545-0.335,3.432-6.443,5.773h-0.334c-6.108-2.342-6.442-5.229-6.442-5.773
		c0.042-1.087,0.293-2.174,0.753-3.179c1.673,1.884,3.682,3.138,5.856,3.138c2.134,0,4.184-1.213,5.857-3.138
		C77.935,144.984,78.229,146.071,78.229,147.158L78.229,147.158z M78.229,147.158" class="IBOlxlaO_23"></path>
	<path fill="#F15640" d="M75.258,153.895l-1.338,2.676h-4.602l-1.338-2.676c1.841-0.795,3.639-0.92,3.639-0.92
		S73.459,153.1,75.258,153.895L75.258,153.895z M75.258,153.895" class="IBOlxlaO_24"></path>
	<path fill="#F3715B" d="M67.895,167.825c1.214,0.167,2.468,0.251,3.765,0.251c1.255,0,2.51-0.084,3.765-0.251l-1.464-11.212h-4.602
		L67.895,167.825z M67.895,167.825" class="IBOlxlaO_25"></path>
	<path fill="#FFFFFF" d="M78.229,147.076c0,0,0.292,3.346-6.611,5.898c0,0,5.397,0.293,7.029,4.016
		C78.688,157.158,81.825,149.041,78.229,147.076L78.229,147.076z M78.229,147.076" class="IBOlxlaO_26"></path>
	<path fill="#FFFFFF" d="M65.009,147.076c-3.556,1.965-0.46,10.039-0.376,9.914c1.589-3.682,7.028-4.016,7.028-4.016
		C64.716,150.422,65.009,147.076,65.009,147.076L65.009,147.076z M65.009,147.076" class="IBOlxlaO_27"></path>
	<path fill="#F8B54D" d="M77.81,144.816c-1.757,1.882-3.849,3.096-6.192,3.096c-2.342,0-4.434-1.214-6.191-3.096
		c0.084-0.293,0.209-0.586,0.335-0.837c1.673,1.884,3.682,3.138,5.856,3.138c2.176,0,4.184-1.213,5.857-3.138
		C77.6,144.23,77.726,144.523,77.81,144.816L77.81,144.816z M77.81,144.816" class="IBOlxlaO_28"></path>
	<path fill="#FFD15C" d="M83.038,138.417c-0.877,1.463-2.216,2.342-3.22,2.174c-2.008,3.724-4.937,6.485-8.2,6.485
		c-3.263,0-6.191-2.804-8.199-6.485c-1.004,0.126-2.342-0.711-3.221-2.174c-1.046-1.716-1.088-3.6-0.083-4.227
		c0.251-0.125,0.501-0.209,0.795-0.167c0.669,1.716,1.589,2.761,1.589,2.761c-0.962-5.313,2.97-5.898,2.301-11.002
		c0,0,2.468,5.48,9.538,1.631l-0.544,1.047c9.873-2.217,6.568,9.412,6.485,9.705c1.129-1.423,1.84-2.845,2.259-4.142
		c0.167,0,0.376,0.084,0.501,0.167C84.126,134.777,84.085,136.701,83.038,138.417L83.038,138.417z M83.038,138.417" class="IBOlxlaO_29"></path>
	<path fill="#334B5E" d="M77.308,120.261c0.795-0.083,2.092,0.627,2.092,0.627c-3.556-4.059-9.37-1.464-9.37-1.464
		c1.965-1.674,3.723-1.506,3.723-1.506c-8.325-1.254-9.748,3.722-9.748,3.722c-0.376-0.585-0.376-1.42-0.334-1.839
		c-0.586,1.004,0.042,3.011,0.042,3.011c-0.585-1.463-2.635-1.213-2.635-1.213c1.757,0.293,2.05,1.381,2.05,1.381
		c-4.393,1.631-3.641,6.191-3.641,6.191l1.046-1.256c-1.296,4.979,2.008,8.827,2.008,8.827c-0.962-5.312,2.971-5.897,2.301-11.001
		c0,0,2.468,5.48,9.539,1.631l-0.544,1.046c9.998-2.259,6.484,9.747,6.484,9.747c3.556-4.518,3.012-9.161,3.012-9.161l0.418,1.673
		C84.879,123.147,77.308,120.261,77.308,120.261L77.308,120.261z M77.308,120.261" class="IBOlxlaO_30"></path>
</g>
<path fill="#E8E8E8" stroke="#898989" stroke-width="2" stroke-miterlimit="10" d="M11.353,141.511A11.039,11.039 0,1,1 33.431,141.511A11.039,11.039 0,1,1 11.353,141.511" class="IBOlxlaO_31"></path>
<path fill="#B2B3B3" width="29.958" height="11.039" d="M112.909 124.892 L142.86700000000002 124.892 L142.86700000000002 135.93099999999998 L112.909 135.93099999999998 Z" class="IBOlxlaO_32"></path>
<path fill="#B2B3B3" width="91.139" height="11.039" d="M147.508 124.892 L238.647 124.892 L238.647 135.93099999999998 L147.508 135.93099999999998 Z" class="IBOlxlaO_33"></path>
<path fill="#B2B3B3" width="125.738" height="7.443" d="M112.909 139.95 L238.647 139.95 L238.647 147.393 L112.909 147.393 Z" class="IBOlxlaO_34"></path>
<path fill="#B2B3B3" width="45.992" height="7.443" d="M112.909 150.689 L158.901 150.689 L158.901 158.132 L112.909 158.132 Z" class="IBOlxlaO_35"></path>
<path fill="#B2B3B3" width="49.818" height="7.443" d="M163.512 150.689 L213.32999999999998 150.689 L213.32999999999998 158.132 L163.512 158.132 Z" class="IBOlxlaO_36"></path>
<path fill="#B2B3B3" width="22.1" height="7.443" d="M216.547 150.689 L238.647 150.689 L238.647 158.132 L216.547 158.132 Z" class="IBOlxlaO_37"></path>
<g>
	<path fill="#2A81BA" d="M98.224,204.513c0,14.669-11.893,26.563-26.564,26.563c-14.671,0-26.564-11.895-26.564-26.563
		c0-14.672,11.893-26.565,26.564-26.565C86.331,177.947,98.224,189.841,98.224,204.513L98.224,204.513z M98.224,204.513" class="IBOlxlaO_38"></path>
	<path fill="#E7E9ED" d="M71.785,215.932c-0.041,0-0.083,0.043-0.167,0.043c-0.042,0-0.083-0.043-0.167-0.043H71.785z
		 M71.785,215.932" class="IBOlxlaO_39"></path>
	<path fill="#E7E9ED" d="M93.037,220.199c-4.811,6.566-12.634,10.877-21.419,10.877c-8.784,0-16.565-4.268-21.418-10.877
		c3.765-4.016,8.869-6.149,13.136-7.237c-0.376,3.054,1.213,7.153,1.254,7.028c1.59-3.682,6.986-4.016,6.986-4.016
		s5.397,0.293,7.029,4.016c0.042,0.084,1.631-3.975,1.255-7.028C84.168,214.05,89.272,216.184,93.037,220.199L93.037,220.199z
		 M93.037,220.199" class="IBOlxlaO_40"></path>
	<path fill="#FFD15C" d="M78.229,210.158c0,0.545-0.335,3.432-6.443,5.773h-0.334c-6.108-2.342-6.442-5.229-6.442-5.773
		c0.042-1.087,0.293-2.174,0.753-3.179c1.673,1.884,3.682,3.138,5.856,3.138c2.134,0,4.184-1.213,5.857-3.138
		C77.935,207.984,78.229,209.071,78.229,210.158L78.229,210.158z M78.229,210.158" class="IBOlxlaO_41"></path>
	<path fill="#F15640" d="M75.258,216.895l-1.338,2.676h-4.602l-1.338-2.676c1.841-0.795,3.639-0.92,3.639-0.92
		S73.459,216.1,75.258,216.895L75.258,216.895z M75.258,216.895" class="IBOlxlaO_42"></path>
	<path fill="#F3715B" d="M67.895,230.825c1.214,0.167,2.468,0.251,3.765,0.251c1.255,0,2.51-0.084,3.765-0.251l-1.464-11.212h-4.602
		L67.895,230.825z M67.895,230.825" class="IBOlxlaO_43"></path>
	<path fill="#FFFFFF" d="M78.229,210.076c0,0,0.292,3.346-6.611,5.898c0,0,5.397,0.293,7.029,4.016
		C78.688,220.158,81.825,212.041,78.229,210.076L78.229,210.076z M78.229,210.076" class="IBOlxlaO_44"></path>
	<path fill="#FFFFFF" d="M65.009,210.076c-3.556,1.965-0.46,10.039-0.376,9.914c1.589-3.682,7.028-4.016,7.028-4.016
		C64.716,213.422,65.009,210.076,65.009,210.076L65.009,210.076z M65.009,210.076" class="IBOlxlaO_45"></path>
	<path fill="#F8B54D" d="M77.81,207.816c-1.757,1.882-3.849,3.096-6.192,3.096c-2.342,0-4.434-1.214-6.191-3.096
		c0.084-0.293,0.209-0.586,0.335-0.837c1.673,1.884,3.682,3.138,5.856,3.138c2.176,0,4.184-1.213,5.857-3.138
		C77.6,207.23,77.726,207.523,77.81,207.816L77.81,207.816z M77.81,207.816" class="IBOlxlaO_46"></path>
	<path fill="#FFD15C" d="M83.038,201.417c-0.877,1.463-2.216,2.342-3.22,2.174c-2.008,3.724-4.937,6.485-8.2,6.485
		c-3.263,0-6.191-2.804-8.199-6.485c-1.004,0.126-2.342-0.711-3.221-2.174c-1.046-1.716-1.088-3.6-0.083-4.227
		c0.251-0.125,0.501-0.209,0.795-0.167c0.669,1.716,1.589,2.761,1.589,2.761c-0.962-5.313,2.97-5.898,2.301-11.002
		c0,0,2.468,5.48,9.538,1.631l-0.544,1.047c9.873-2.217,6.568,9.412,6.485,9.705c1.129-1.423,1.84-2.845,2.259-4.142
		c0.167,0,0.376,0.084,0.501,0.167C84.126,197.777,84.085,199.701,83.038,201.417L83.038,201.417z M83.038,201.417" class="IBOlxlaO_47"></path>
	<path fill="#334B5E" d="M77.308,183.261c0.795-0.083,2.092,0.628,2.092,0.628c-3.556-4.059-9.37-1.465-9.37-1.465
		c1.965-1.674,3.723-1.506,3.723-1.506c-8.325-1.255-9.748,3.722-9.748,3.722c-0.376-0.585-0.376-1.421-0.334-1.839
		c-0.586,1.004,0.042,3.011,0.042,3.011c-0.585-1.463-2.635-1.213-2.635-1.213c1.757,0.293,2.05,1.381,2.05,1.381
		c-4.393,1.631-3.641,6.191-3.641,6.191l1.046-1.256c-1.296,4.979,2.008,8.827,2.008,8.827c-0.962-5.312,2.971-5.897,2.301-11.001
		c0,0,2.468,5.48,9.539,1.631l-0.544,1.046c9.998-2.259,6.484,9.747,6.484,9.747c3.556-4.518,3.012-9.161,3.012-9.161l0.418,1.673
		C84.879,186.147,77.308,183.261,77.308,183.261L77.308,183.261z M77.308,183.261" class="IBOlxlaO_48"></path>
</g>
<path fill="#E8E8E8" stroke="#898989" stroke-width="2" stroke-miterlimit="10" d="M11.353,204.511A11.039,11.039 0,1,1 33.431,204.511A11.039,11.039 0,1,1 11.353,204.511" class="IBOlxlaO_49"></path>
<path fill="#B2B3B3" width="29.958" height="11.039" d="M112.909 187.892 L142.86700000000002 187.892 L142.86700000000002 198.93099999999998 L112.909 198.93099999999998 Z" class="IBOlxlaO_50"></path>
<path fill="#B2B3B3" width="91.139" height="11.039" d="M147.508 187.892 L238.647 187.892 L238.647 198.93099999999998 L147.508 198.93099999999998 Z" class="IBOlxlaO_51"></path>
<path fill="#B2B3B3" width="125.738" height="7.443" d="M112.909 202.95 L238.647 202.95 L238.647 210.393 L112.909 210.393 Z" class="IBOlxlaO_52"></path>
<path fill="#B2B3B3" width="45.992" height="7.443" d="M112.909 213.689 L158.901 213.689 L158.901 221.132 L112.909 221.132 Z" class="IBOlxlaO_53"></path>
<path fill="#B2B3B3" width="49.818" height="7.443" d="M163.512 213.689 L213.32999999999998 213.689 L213.32999999999998 221.132 L163.512 221.132 Z" class="IBOlxlaO_54"></path>
<path fill="#B2B3B3" width="22.1" height="7.443" d="M216.547 213.689 L238.647 213.689 L238.647 221.132 L216.547 221.132 Z" class="IBOlxlaO_55"></path>
<path fill="#348EC1" width="250" height="23.802" d="M0 0 L250 0 L250 23.802 L0 23.802 Z" class="IBOlxlaO_56"></path>
<text transform="matrix(1 0 0 1 11.353 15.4229)" fill="#FFFFFF" font-family="'BerlinSansFBDemi-Bold'" font-size="12">Choose an Elector</text>
<style>.IBOlxlaO_0{stroke-dasharray:167 169;stroke-dashoffset:168;animation:IBOlxlaO_draw_0 7200ms ease 0ms infinite,IBOlxlaO_fade 7200ms linear 0ms infinite;}.IBOlxlaO_1{stroke-dasharray:1 3;stroke-dashoffset:2;animation:IBOlxlaO_draw_1 7200ms ease 0ms infinite,IBOlxlaO_fade 7200ms linear 0ms infinite;}.IBOlxlaO_2{stroke-dasharray:112 114;stroke-dashoffset:113;animation:IBOlxlaO_draw_2 7200ms ease 0ms infinite,IBOlxlaO_fade 7200ms linear 0ms infinite;}.IBOlxlaO_3{stroke-dasharray:39 41;stroke-dashoffset:40;animation:IBOlxlaO_draw_3 7200ms ease 0ms infinite,IBOlxlaO_fade 7200ms linear 0ms infinite;}.IBOlxlaO_4{stroke-dasharray:19 21;stroke-dashoffset:20;animation:IBOlxlaO_draw_4 7200ms ease 0ms infinite,IBOlxlaO_fade 7200ms linear 0ms infinite;}.IBOlxlaO_5{stroke-dasharray:35 37;stroke-dashoffset:36;animation:IBOlxlaO_draw_5 7200ms ease 0ms infinite,IBOlxlaO_fade 7200ms linear 0ms infinite;}.IBOlxlaO_6{stroke-dasharray:29 31;stroke-dashoffset:30;animation:IBOlxlaO_draw_6 7200ms ease 0ms infinite,IBOlxlaO_fade 7200ms linear 0ms infinite;}.IBOlxlaO_7{stroke-dasharray:29 31;stroke-dashoffset:30;animation:IBOlxlaO_draw_7 7200ms ease 0ms infinite,IBOlxlaO_fade 7200ms linear 0ms infinite;}.IBOlxlaO_8{stroke-dasharray:30 32;stroke-dashoffset:31;animation:IBOlxlaO_draw_8 7200ms ease 0ms infinite,IBOlxlaO_fade 7200ms linear 0ms infinite;}.IBOlxlaO_9{stroke-dasharray:88 90;stroke-dashoffset:89;animation:IBOlxlaO_draw_9 7200ms ease 0ms infinite,IBOlxlaO_fade 7200ms linear 0ms infinite;}.IBOlxlaO_10{stroke-dasharray:121 123;stroke-dashoffset:122;animation:IBOlxlaO_draw_10 7200ms ease 0ms infinite,IBOlxlaO_fade 7200ms linear 0ms infinite;}.IBOlxlaO_11{stroke-dasharray:70 72;stroke-dashoffset:71;animation:IBOlxlaO_draw_11 7200ms ease 0ms infinite,IBOlxlaO_fade 7200ms linear 0ms infinite;}.IBOlxlaO_12{stroke-dasharray:82 84;stroke-dashoffset:83;animation:IBOlxlaO_draw_12 7200ms ease 0ms infinite,IBOlxlaO_fade 7200ms linear 0ms infinite;}.IBOlxlaO_13{stroke-dasharray:205 207;stroke-dashoffset:206;animation:IBOlxlaO_draw_13 7200ms ease 0ms infinite,IBOlxlaO_fade 7200ms linear 0ms infinite;}.IBOlxlaO_14{stroke-dasharray:258 260;stroke-dashoffset:259;animation:IBOlxlaO_draw_14 7200ms ease 0ms infinite,IBOlxlaO_fade 7200ms linear 0ms infinite;}.IBOlxlaO_15{stroke-dasharray:229 231;stroke-dashoffset:230;animation:IBOlxlaO_draw_15 7200ms ease 0ms infinite,IBOlxlaO_fade 7200ms linear 0ms infinite;}.IBOlxlaO_16{stroke-dasharray:267 269;stroke-dashoffset:268;animation:IBOlxlaO_draw_16 7200ms ease 0ms infinite,IBOlxlaO_fade 7200ms linear 0ms infinite;}.IBOlxlaO_17{stroke-dasharray:107 109;stroke-dashoffset:108;animation:IBOlxlaO_draw_17 7200ms ease 0ms infinite,IBOlxlaO_fade 7200ms linear 0ms infinite;}.IBOlxlaO_18{stroke-dasharray:115 117;stroke-dashoffset:116;animation:IBOlxlaO_draw_18 7200ms ease 0ms infinite,IBOlxlaO_fade 7200ms linear 0ms infinite;}.IBOlxlaO_19{stroke-dasharray:60 62;stroke-dashoffset:61;animation:IBOlxlaO_draw_19 7200ms ease 0ms infinite,IBOlxlaO_fade 7200ms linear 0ms infinite;}.IBOlxlaO_20{stroke-dasharray:167 169;stroke-dashoffset:168;animation:IBOlxlaO_draw_20 7200ms ease 0ms infinite,IBOlxlaO_fade 7200ms linear 0ms infinite;}.IBOlxlaO_21{stroke-dasharray:1 3;stroke-dashoffset:2;animation:IBOlxlaO_draw_21 7200ms ease 0ms infinite,IBOlxlaO_fade 7200ms linear 0ms infinite;}.IBOlxlaO_22{stroke-dasharray:112 114;stroke-dashoffset:113;animation:IBOlxlaO_draw_22 7200ms ease 0ms infinite,IBOlxlaO_fade 7200ms linear 0ms infinite;}.IBOlxlaO_23{stroke-dasharray:39 41;stroke-dashoffset:40;animation:IBOlxlaO_draw_23 7200ms ease 0ms infinite,IBOlxlaO_fade 7200ms linear 0ms infinite;}.IBOlxlaO_24{stroke-dasharray:19 21;stroke-dashoffset:20;animation:IBOlxlaO_draw_24 7200ms ease 0ms infinite,IBOlxlaO_fade 7200ms linear 0ms infinite;}.IBOlxlaO_25{stroke-dasharray:35 37;stroke-dashoffset:36;animation:IBOlxlaO_draw_25 7200ms ease 0ms infinite,IBOlxlaO_fade 7200ms linear 0ms infinite;}.IBOlxlaO_26{stroke-dasharray:29 31;stroke-dashoffset:30;animation:IBOlxlaO_draw_26 7200ms ease 0ms infinite,IBOlxlaO_fade 7200ms linear 0ms infinite;}.IBOlxlaO_27{stroke-dasharray:29 31;stroke-dashoffset:30;animation:IBOlxlaO_draw_27 7200ms ease 0ms infinite,IBOlxlaO_fade 7200ms linear 0ms infinite;}.IBOlxlaO_28{stroke-dasharray:30 32;stroke-dashoffset:31;animation:IBOlxlaO_draw_28 7200ms ease 0ms infinite,IBOlxlaO_fade 7200ms linear 0ms infinite;}.IBOlxlaO_29{stroke-dasharray:88 90;stroke-dashoffset:89;animation:IBOlxlaO_draw_29 7200ms ease 0ms infinite,IBOlxlaO_fade 7200ms linear 0ms infinite;}.IBOlxlaO_30{stroke-dasharray:121 123;stroke-dashoffset:122;animation:IBOlxlaO_draw_30 7200ms ease 0ms infinite,IBOlxlaO_fade 7200ms linear 0ms infinite;}.IBOlxlaO_31{stroke-dasharray:70 72;stroke-dashoffset:71;animation:IBOlxlaO_draw_31 7200ms ease 0ms infinite,IBOlxlaO_fade 7200ms linear 0ms infinite;}.IBOlxlaO_32{stroke-dasharray:82 84;stroke-dashoffset:83;animation:IBOlxlaO_draw_32 7200ms ease 0ms infinite,IBOlxlaO_fade 7200ms linear 0ms infinite;}.IBOlxlaO_33{stroke-dasharray:205 207;stroke-dashoffset:206;animation:IBOlxlaO_draw_33 7200ms ease 0ms infinite,IBOlxlaO_fade 7200ms linear 0ms infinite;}.IBOlxlaO_34{stroke-dasharray:267 269;stroke-dashoffset:268;animation:IBOlxlaO_draw_34 7200ms ease 0ms infinite,IBOlxlaO_fade 7200ms linear 0ms infinite;}.IBOlxlaO_35{stroke-dasharray:107 109;stroke-dashoffset:108;animation:IBOlxlaO_draw_35 7200ms ease 0ms infinite,IBOlxlaO_fade 7200ms linear 0ms infinite;}.IBOlxlaO_36{stroke-dasharray:115 117;stroke-dashoffset:116;animation:IBOlxlaO_draw_36 7200ms ease 0ms infinite,IBOlxlaO_fade 7200ms linear 0ms infinite;}.IBOlxlaO_37{stroke-dasharray:60 62;stroke-dashoffset:61;animation:IBOlxlaO_draw_37 7200ms ease 0ms infinite,IBOlxlaO_fade 7200ms linear 0ms infinite;}.IBOlxlaO_38{stroke-dasharray:167 169;stroke-dashoffset:168;animation:IBOlxlaO_draw_38 7200ms ease 0ms infinite,IBOlxlaO_fade 7200ms linear 0ms infinite;}.IBOlxlaO_39{stroke-dasharray:1 3;stroke-dashoffset:2;animation:IBOlxlaO_draw_39 7200ms ease 0ms infinite,IBOlxlaO_fade 7200ms linear 0ms infinite;}.IBOlxlaO_40{stroke-dasharray:112 114;stroke-dashoffset:113;animation:IBOlxlaO_draw_40 7200ms ease 0ms infinite,IBOlxlaO_fade 7200ms linear 0ms infinite;}.IBOlxlaO_41{stroke-dasharray:39 41;stroke-dashoffset:40;animation:IBOlxlaO_draw_41 7200ms ease 0ms infinite,IBOlxlaO_fade 7200ms linear 0ms infinite;}.IBOlxlaO_42{stroke-dasharray:19 21;stroke-dashoffset:20;animation:IBOlxlaO_draw_42 7200ms ease 0ms infinite,IBOlxlaO_fade 7200ms linear 0ms infinite;}.IBOlxlaO_43{stroke-dasharray:35 37;stroke-dashoffset:36;animation:IBOlxlaO_draw_43 7200ms ease 0ms infinite,IBOlxlaO_fade 7200ms linear 0ms infinite;}.IBOlxlaO_44{stroke-dasharray:29 31;stroke-dashoffset:30;animation:IBOlxlaO_draw_44 7200ms ease 0ms infinite,IBOlxlaO_fade 7200ms linear 0ms infinite;}.IBOlxlaO_45{stroke-dasharray:29 31;stroke-dashoffset:30;animation:IBOlxlaO_draw_45 7200ms ease 0ms infinite,IBOlxlaO_fade 7200ms linear 0ms infinite;}.IBOlxlaO_46{stroke-dasharray:30 32;stroke-dashoffset:31;animation:IBOlxlaO_draw_46 7200ms ease 0ms infinite,IBOlxlaO_fade 7200ms linear 0ms infinite;}.IBOlxlaO_47{stroke-dasharray:88 90;stroke-dashoffset:89;animation:IBOlxlaO_draw_47 7200ms ease 0ms infinite,IBOlxlaO_fade 7200ms linear 0ms infinite;}.IBOlxlaO_48{stroke-dasharray:121 123;stroke-dashoffset:122;animation:IBOlxlaO_draw_48 7200ms ease 0ms infinite,IBOlxlaO_fade 7200ms linear 0ms infinite;}.IBOlxlaO_49{stroke-dasharray:70 72;stroke-dashoffset:71;animation:IBOlxlaO_draw_49 7200ms ease 0ms infinite,IBOlxlaO_fade 7200ms linear 0ms infinite;}.IBOlxlaO_50{stroke-dasharray:82 84;stroke-dashoffset:83;animation:IBOlxlaO_draw_50 7200ms ease 0ms infinite,IBOlxlaO_fade 7200ms linear 0ms infinite;}.IBOlxlaO_51{stroke-dasharray:205 207;stroke-dashoffset:206;animation:IBOlxlaO_draw_51 7200ms ease 0ms infinite,IBOlxlaO_fade 7200ms linear 0ms infinite;}.IBOlxlaO_52{stroke-dasharray:267 269;stroke-dashoffset:268;animation:IBOlxlaO_draw_52 7200ms ease 0ms infinite,IBOlxlaO_fade 7200ms linear 0ms infinite;}.IBOlxlaO_53{stroke-dasharray:107 109;stroke-dashoffset:108;animation:IBOlxlaO_draw_53 7200ms ease 0ms infinite,IBOlxlaO_fade 7200ms linear 0ms infinite;}.IBOlxlaO_54{stroke-dasharray:115 117;stroke-dashoffset:116;animation:IBOlxlaO_draw_54 7200ms ease 0ms infinite,IBOlxlaO_fade 7200ms linear 0ms infinite;}.IBOlxlaO_55{stroke-dasharray:60 62;stroke-dashoffset:61;animation:IBOlxlaO_draw_55 7200ms ease 0ms infinite,IBOlxlaO_fade 7200ms linear 0ms infinite;}.IBOlxlaO_56{stroke-dasharray:548 550;stroke-dashoffset:549;animation:IBOlxlaO_draw_56 7200ms ease 0ms infinite,IBOlxlaO_fade 7200ms linear 0ms infinite;}@keyframes IBOlxlaO_draw{100%{stroke-dashoffset:0;}}@keyframes IBOlxlaO_fade{0%{stroke-opacity:1;}94.44444444444444%{stroke-opacity:1;}100%{stroke-opacity:0;}}@keyframes IBOlxlaO_draw_0{11.11111111111111%{stroke-dashoffset: 168}52.77777777777778%{ stroke-dashoffset: 0;}100%{ stroke-dashoffset: 0;}}@keyframes IBOlxlaO_draw_1{11.11111111111111%{stroke-dashoffset: 2}52.77777777777778%{ stroke-dashoffset: 0;}100%{ stroke-dashoffset: 0;}}@keyframes IBOlxlaO_draw_2{11.11111111111111%{stroke-dashoffset: 113}52.77777777777778%{ stroke-dashoffset: 0;}100%{ stroke-dashoffset: 0;}}@keyframes IBOlxlaO_draw_3{11.11111111111111%{stroke-dashoffset: 40}52.77777777777778%{ stroke-dashoffset: 0;}100%{ stroke-dashoffset: 0;}}@keyframes IBOlxlaO_draw_4{11.11111111111111%{stroke-dashoffset: 20}52.77777777777778%{ stroke-dashoffset: 0;}100%{ stroke-dashoffset: 0;}}@keyframes IBOlxlaO_draw_5{11.11111111111111%{stroke-dashoffset: 36}52.77777777777778%{ stroke-dashoffset: 0;}100%{ stroke-dashoffset: 0;}}@keyframes IBOlxlaO_draw_6{11.11111111111111%{stroke-dashoffset: 30}52.77777777777778%{ stroke-dashoffset: 0;}100%{ stroke-dashoffset: 0;}}@keyframes IBOlxlaO_draw_7{11.11111111111111%{stroke-dashoffset: 30}52.77777777777778%{ stroke-dashoffset: 0;}100%{ stroke-dashoffset: 0;}}@keyframes IBOlxlaO_draw_8{11.11111111111111%{stroke-dashoffset: 31}52.77777777777778%{ stroke-dashoffset: 0;}100%{ stroke-dashoffset: 0;}}@keyframes IBOlxlaO_draw_9{11.11111111111111%{stroke-dashoffset: 89}52.77777777777778%{ stroke-dashoffset: 0;}100%{ stroke-dashoffset: 0;}}@keyframes IBOlxlaO_draw_10{11.11111111111111%{stroke-dashoffset: 122}52.77777777777778%{ stroke-dashoffset: 0;}100%{ stroke-dashoffset: 0;}}@keyframes IBOlxlaO_draw_11{11.11111111111111%{stroke-dashoffset: 71}52.77777777777778%{ stroke-dashoffset: 0;}100%{ stroke-dashoffset: 0;}}@keyframes IBOlxlaO_draw_12{11.11111111111111%{stroke-dashoffset: 83}52.77777777777778%{ stroke-dashoffset: 0;}100%{ stroke-dashoffset: 0;}}@keyframes IBOlxlaO_draw_13{11.11111111111111%{stroke-dashoffset: 206}52.77777777777778%{ stroke-dashoffset: 0;}100%{ stroke-dashoffset: 0;}}@keyframes IBOlxlaO_draw_14{11.11111111111111%{stroke-dashoffset: 259}52.77777777777778%{ stroke-dashoffset: 0;}100%{ stroke-dashoffset: 0;}}@keyframes IBOlxlaO_draw_15{11.11111111111111%{stroke-dashoffset: 230}52.77777777777778%{ stroke-dashoffset: 0;}100%{ stroke-dashoffset: 0;}}@keyframes IBOlxlaO_draw_16{11.11111111111111%{stroke-dashoffset: 268}52.77777777777778%{ stroke-dashoffset: 0;}100%{ stroke-dashoffset: 0;}}@keyframes IBOlxlaO_draw_17{11.11111111111111%{stroke-dashoffset: 108}52.77777777777778%{ stroke-dashoffset: 0;}100%{ stroke-dashoffset: 0;}}@keyframes IBOlxlaO_draw_18{11.11111111111111%{stroke-dashoffset: 116}52.77777777777778%{ stroke-dashoffset: 0;}100%{ stroke-dashoffset: 0;}}@keyframes IBOlxlaO_draw_19{11.11111111111111%{stroke-dashoffset: 61}52.77777777777778%{ stroke-dashoffset: 0;}100%{ stroke-dashoffset: 0;}}@keyframes IBOlxlaO_draw_20{11.11111111111111%{stroke-dashoffset: 168}52.77777777777778%{ stroke-dashoffset: 0;}100%{ stroke-dashoffset: 0;}}@keyframes IBOlxlaO_draw_21{11.11111111111111%{stroke-dashoffset: 2}52.77777777777778%{ stroke-dashoffset: 0;}100%{ stroke-dashoffset: 0;}}@keyframes IBOlxlaO_draw_22{11.11111111111111%{stroke-dashoffset: 113}52.77777777777778%{ stroke-dashoffset: 0;}100%{ stroke-dashoffset: 0;}}@keyframes IBOlxlaO_draw_23{11.11111111111111%{stroke-dashoffset: 40}52.77777777777778%{ stroke-dashoffset: 0;}100%{ stroke-dashoffset: 0;}}@keyframes IBOlxlaO_draw_24{11.11111111111111%{stroke-dashoffset: 20}52.77777777777778%{ stroke-dashoffset: 0;}100%{ stroke-dashoffset: 0;}}@keyframes IBOlxlaO_draw_25{11.11111111111111%{stroke-dashoffset: 36}52.77777777777778%{ stroke-dashoffset: 0;}100%{ stroke-dashoffset: 0;}}@keyframes IBOlxlaO_draw_26{11.11111111111111%{stroke-dashoffset: 30}52.77777777777778%{ stroke-dashoffset: 0;}100%{ stroke-dashoffset: 0;}}@keyframes IBOlxlaO_draw_27{11.11111111111111%{stroke-dashoffset: 30}52.77777777777778%{ stroke-dashoffset: 0;}100%{ stroke-dashoffset: 0;}}@keyframes IBOlxlaO_draw_28{11.11111111111111%{stroke-dashoffset: 31}52.77777777777778%{ stroke-dashoffset: 0;}100%{ stroke-dashoffset: 0;}}@keyframes IBOlxlaO_draw_29{11.11111111111111%{stroke-dashoffset: 89}52.77777777777778%{ stroke-dashoffset: 0;}100%{ stroke-dashoffset: 0;}}@keyframes IBOlxlaO_draw_30{11.11111111111111%{stroke-dashoffset: 122}52.77777777777778%{ stroke-dashoffset: 0;}100%{ stroke-dashoffset: 0;}}@keyframes IBOlxlaO_draw_31{11.11111111111111%{stroke-dashoffset: 71}52.77777777777778%{ stroke-dashoffset: 0;}100%{ stroke-dashoffset: 0;}}@keyframes IBOlxlaO_draw_32{11.11111111111111%{stroke-dashoffset: 83}52.77777777777778%{ stroke-dashoffset: 0;}100%{ stroke-dashoffset: 0;}}@keyframes IBOlxlaO_draw_33{11.11111111111111%{stroke-dashoffset: 206}52.77777777777778%{ stroke-dashoffset: 0;}100%{ stroke-dashoffset: 0;}}@keyframes IBOlxlaO_draw_34{11.11111111111111%{stroke-dashoffset: 268}52.77777777777778%{ stroke-dashoffset: 0;}100%{ stroke-dashoffset: 0;}}@keyframes IBOlxlaO_draw_35{11.11111111111111%{stroke-dashoffset: 108}52.77777777777778%{ stroke-dashoffset: 0;}100%{ stroke-dashoffset: 0;}}@keyframes IBOlxlaO_draw_36{11.11111111111111%{stroke-dashoffset: 116}52.77777777777778%{ stroke-dashoffset: 0;}100%{ stroke-dashoffset: 0;}}@keyframes IBOlxlaO_draw_37{11.11111111111111%{stroke-dashoffset: 61}52.77777777777778%{ stroke-dashoffset: 0;}100%{ stroke-dashoffset: 0;}}@keyframes IBOlxlaO_draw_38{11.11111111111111%{stroke-dashoffset: 168}52.77777777777778%{ stroke-dashoffset: 0;}100%{ stroke-dashoffset: 0;}}@keyframes IBOlxlaO_draw_39{11.11111111111111%{stroke-dashoffset: 2}52.77777777777778%{ stroke-dashoffset: 0;}100%{ stroke-dashoffset: 0;}}@keyframes IBOlxlaO_draw_40{11.11111111111111%{stroke-dashoffset: 113}52.77777777777778%{ stroke-dashoffset: 0;}100%{ stroke-dashoffset: 0;}}@keyframes IBOlxlaO_draw_41{11.11111111111111%{stroke-dashoffset: 40}52.77777777777778%{ stroke-dashoffset: 0;}100%{ stroke-dashoffset: 0;}}@keyframes IBOlxlaO_draw_42{11.11111111111111%{stroke-dashoffset: 20}52.77777777777778%{ stroke-dashoffset: 0;}100%{ stroke-dashoffset: 0;}}@keyframes IBOlxlaO_draw_43{11.11111111111111%{stroke-dashoffset: 36}52.77777777777778%{ stroke-dashoffset: 0;}100%{ stroke-dashoffset: 0;}}@keyframes IBOlxlaO_draw_44{11.11111111111111%{stroke-dashoffset: 30}52.77777777777778%{ stroke-dashoffset: 0;}100%{ stroke-dashoffset: 0;}}@keyframes IBOlxlaO_draw_45{11.11111111111111%{stroke-dashoffset: 30}52.77777777777778%{ stroke-dashoffset: 0;}100%{ stroke-dashoffset: 0;}}@keyframes IBOlxlaO_draw_46{11.11111111111111%{stroke-dashoffset: 31}52.77777777777778%{ stroke-dashoffset: 0;}100%{ stroke-dashoffset: 0;}}@keyframes IBOlxlaO_draw_47{11.11111111111111%{stroke-dashoffset: 89}52.77777777777778%{ stroke-dashoffset: 0;}100%{ stroke-dashoffset: 0;}}@keyframes IBOlxlaO_draw_48{11.11111111111111%{stroke-dashoffset: 122}52.77777777777778%{ stroke-dashoffset: 0;}100%{ stroke-dashoffset: 0;}}@keyframes IBOlxlaO_draw_49{11.11111111111111%{stroke-dashoffset: 71}52.77777777777778%{ stroke-dashoffset: 0;}100%{ stroke-dashoffset: 0;}}@keyframes IBOlxlaO_draw_50{11.11111111111111%{stroke-dashoffset: 83}52.77777777777778%{ stroke-dashoffset: 0;}100%{ stroke-dashoffset: 0;}}@keyframes IBOlxlaO_draw_51{11.11111111111111%{stroke-dashoffset: 206}52.77777777777778%{ stroke-dashoffset: 0;}100%{ stroke-dashoffset: 0;}}@keyframes IBOlxlaO_draw_52{11.11111111111111%{stroke-dashoffset: 268}52.77777777777778%{ stroke-dashoffset: 0;}100%{ stroke-dashoffset: 0;}}@keyframes IBOlxlaO_draw_53{11.11111111111111%{stroke-dashoffset: 108}52.77777777777778%{ stroke-dashoffset: 0;}100%{ stroke-dashoffset: 0;}}@keyframes IBOlxlaO_draw_54{11.11111111111111%{stroke-dashoffset: 116}52.77777777777778%{ stroke-dashoffset: 0;}100%{ stroke-dashoffset: 0;}}@keyframes IBOlxlaO_draw_55{11.11111111111111%{stroke-dashoffset: 61}52.77777777777778%{ stroke-dashoffset: 0;}100%{ stroke-dashoffset: 0;}}@keyframes IBOlxlaO_draw_56{11.11111111111111%{stroke-dashoffset: 549}52.77777777777778%{ stroke-dashoffset: 0;}100%{ stroke-dashoffset: 0;}}</style></svg>
