<?xml version="1.0" encoding="utf-8"?>
<!-- Generator: Adobe Illustrator 16.0.0, SVG Export Plug-In . SVG Version: 6.00 Build 0)  -->
<!DOCTYPE svg PUBLIC "-//W3C//DTD SVG 1.1//EN" "http://www.w3.org/Graphics/SVG/1.1/DTD/svg11.dtd">
<svg version="1.1" id="Layer_1" xmlns="http://www.w3.org/2000/svg" xmlns:xlink="http://www.w3.org/1999/xlink" x="0px" y="0px"
	 width="250px" height="250px" viewBox="0 0 250 250" enable-background="new 0 0 250 250" xml:space="preserve">
<g>
	<path fill="#2A81BA" d="M97.91,74.114c0,14.67-11.893,26.564-26.564,26.564c-14.671,0-26.564-11.895-26.564-26.564
		c0-14.671,11.893-26.565,26.564-26.565C86.017,47.549,97.91,59.443,97.91,74.114L97.91,74.114z M97.91,74.114"/>
	<path fill="#E7E9ED" d="M71.471,85.534c-0.041,0-0.083,0.042-0.167,0.042c-0.042,0-0.083-0.042-0.167-0.042H71.471z M71.471,85.534
		"/>
	<path fill="#E7E9ED" d="M92.723,89.801c-4.811,6.566-12.634,10.877-21.419,10.877c-8.784,0-16.565-4.268-21.418-10.877
		c3.765-4.017,8.869-6.15,13.136-7.238c-0.376,3.054,1.213,7.154,1.254,7.028c1.59-3.681,6.986-4.015,6.986-4.015
		s5.397,0.292,7.029,4.015c0.042,0.084,1.631-3.974,1.255-7.028C83.854,83.651,88.958,85.785,92.723,89.801L92.723,89.801z
		 M92.723,89.801"/>
	<path fill="#FFD15C" d="M77.915,79.76c0,0.544-0.335,3.431-6.443,5.773h-0.334c-6.108-2.343-6.442-5.229-6.442-5.773
		c0.042-1.087,0.293-2.175,0.753-3.179c1.673,1.883,3.682,3.138,5.856,3.138c2.134,0,4.184-1.213,5.857-3.138
		C77.621,77.585,77.915,78.673,77.915,79.76L77.915,79.76z M77.915,79.76"/>
	<path fill="#F15640" d="M74.944,86.496l-1.338,2.676h-4.602l-1.338-2.676c1.841-0.795,3.639-0.92,3.639-0.92
		S73.145,85.701,74.944,86.496L74.944,86.496z M74.944,86.496"/>
	<path fill="#F3715B" d="M67.581,100.427c1.214,0.167,2.468,0.251,3.765,0.251c1.255,0,2.51-0.084,3.765-0.251l-1.464-11.212h-4.602
		L67.581,100.427z M67.581,100.427"/>
	<path fill="#FFFFFF" d="M77.915,79.677c0,0,0.292,3.346-6.611,5.899c0,0,5.397,0.292,7.029,4.015
		C78.374,89.759,81.511,81.643,77.915,79.677L77.915,79.677z M77.915,79.677"/>
	<path fill="#FFFFFF" d="M64.695,79.677c-3.556,1.966-0.46,10.04-0.376,9.914c1.589-3.681,7.028-4.015,7.028-4.015
		C64.402,83.023,64.695,79.677,64.695,79.677L64.695,79.677z M64.695,79.677"/>
	<path fill="#F8B54D" d="M77.496,77.417c-1.757,1.882-3.849,3.096-6.192,3.096c-2.342,0-4.434-1.214-6.191-3.096
		c0.084-0.292,0.209-0.585,0.335-0.836c1.673,1.883,3.682,3.138,5.856,3.138c2.176,0,4.184-1.213,5.857-3.138
		C77.286,76.833,77.412,77.125,77.496,77.417L77.496,77.417z M77.496,77.417"/>
	<path fill="#FFD15C" d="M82.724,71.018c-0.877,1.464-2.216,2.342-3.22,2.174c-2.008,3.724-4.937,6.485-8.2,6.485
		c-3.263,0-6.191-2.803-8.199-6.485c-1.004,0.126-2.342-0.71-3.221-2.174c-1.046-1.715-1.088-3.599-0.083-4.226
		c0.251-0.125,0.501-0.208,0.795-0.167c0.669,1.715,1.589,2.761,1.589,2.761c-0.962-5.313,2.97-5.899,2.301-11.002
		c0,0,2.468,5.48,9.538,1.631l-0.544,1.046c9.873-2.217,6.568,9.412,6.485,9.705c1.129-1.423,1.84-2.845,2.259-4.142
		c0.167,0,0.376,0.084,0.501,0.167C83.812,67.379,83.771,69.303,82.724,71.018L82.724,71.018z M82.724,71.018"/>
	<path fill="#334B5E" d="M76.994,52.862c0.795-0.083,2.092,0.627,2.092,0.627c-3.556-4.059-9.37-1.464-9.37-1.464
		c1.965-1.674,3.723-1.506,3.723-1.506c-8.325-1.254-9.748,3.723-9.748,3.723c-0.376-0.585-0.376-1.421-0.334-1.84
		c-0.586,1.004,0.042,3.012,0.042,3.012c-0.585-1.464-2.635-1.213-2.635-1.213c1.757,0.292,2.05,1.38,2.05,1.38
		c-4.393,1.631-3.641,6.192-3.641,6.192l1.046-1.256c-1.296,4.979,2.008,8.827,2.008,8.827c-0.962-5.312,2.971-5.898,2.301-11.001
		c0,0,2.468,5.48,9.539,1.631l-0.544,1.046c9.998-2.259,6.484,9.747,6.484,9.747c3.556-4.518,3.012-9.161,3.012-9.161l0.418,1.673
		C84.565,55.75,76.994,52.862,76.994,52.862L76.994,52.862z M76.994,52.862"/>
</g>
<circle fill="#E8E8E8" stroke="#898989" stroke-width="2" stroke-miterlimit="10" cx="22.078" cy="74.113" r="11.039"/>
<rect x="11.039" y="29.981" fill="#E2E2E2" width="117.59" height="11.04"/>
<rect x="135.237" y="29.981" fill="#E2E2E2" width="103.096" height="11.04"/>
<circle fill="none" stroke="#64BC46" stroke-miterlimit="10" cx="22.392" cy="141.511" r="11.039"/>
<circle fill="#E8E8E8" stroke="#898989" stroke-width="2" stroke-miterlimit="10" cx="22.392" cy="204.511" r="11.039"/>
<rect fill="#348EC1" width="250" height="23.802"/>
<text transform="matrix(1 0 0 1 11.353 15.4229)" fill="#FFFFFF" font-family="'BerlinSansFBDemi-Bold'" font-size="12">Create a collection of electors</text>
<g>
	<path fill="#2A81BA" d="M168.506,141.512c0,14.67-11.893,26.564-26.564,26.564s-26.563-11.895-26.563-26.564
		c0-14.672,11.892-26.565,26.563-26.565S168.506,126.84,168.506,141.512L168.506,141.512z M168.506,141.512"/>
	<path fill="#E7E9ED" d="M142.066,152.932c-0.041,0-0.082,0.043-0.166,0.043c-0.043,0-0.084-0.043-0.168-0.043H142.066z
		 M142.066,152.932"/>
	<path fill="#E7E9ED" d="M163.318,157.199c-4.811,6.566-12.633,10.877-21.418,10.877s-16.566-4.268-21.419-10.877
		c3.765-4.016,8.868-6.15,13.136-7.238c-0.377,3.055,1.213,7.154,1.254,7.029c1.592-3.682,6.986-4.016,6.986-4.016
		s5.398,0.293,7.029,4.016c0.041,0.084,1.631-3.975,1.256-7.029C154.451,151.049,159.555,153.184,163.318,157.199L163.318,157.199z
		 M163.318,157.199"/>
	<path fill="#FFD15C" d="M148.51,147.158c0,0.545-0.334,3.432-6.443,5.773h-0.334c-6.107-2.342-6.441-5.229-6.441-5.773
		c0.041-1.088,0.293-2.174,0.752-3.18c1.674,1.885,3.682,3.139,5.857,3.139c2.133,0,4.184-1.213,5.857-3.139
		C148.217,144.984,148.51,146.07,148.51,147.158L148.51,147.158z M148.51,147.158"/>
	<path fill="#F15640" d="M145.539,153.895l-1.338,2.676H139.6l-1.338-2.676c1.84-0.795,3.639-0.92,3.639-0.92
		S143.74,153.1,145.539,153.895L145.539,153.895z M145.539,153.895"/>
	<path fill="#F3715B" d="M138.178,167.824c1.213,0.168,2.467,0.252,3.764,0.252c1.256,0,2.51-0.084,3.766-0.252l-1.465-11.211
		h-4.602L138.178,167.824z M138.178,167.824"/>
	<path fill="#FFFFFF" d="M148.51,147.076c0,0,0.293,3.346-6.609,5.898c0,0,5.396,0.293,7.027,4.016
		C148.971,157.158,152.107,149.041,148.51,147.076L148.51,147.076z M148.51,147.076"/>
	<path fill="#FFFFFF" d="M135.291,147.076c-3.557,1.965-0.461,10.039-0.377,9.914c1.59-3.682,7.027-4.016,7.027-4.016
		C134.998,150.422,135.291,147.076,135.291,147.076L135.291,147.076z M135.291,147.076"/>
	<path fill="#F8B54D" d="M148.092,144.816c-1.758,1.881-3.85,3.096-6.191,3.096s-4.436-1.215-6.191-3.096
		c0.084-0.293,0.209-0.586,0.334-0.838c1.674,1.885,3.682,3.139,5.857,3.139s4.184-1.213,5.857-3.139
		C147.883,144.23,148.008,144.523,148.092,144.816L148.092,144.816z M148.092,144.816"/>
	<path fill="#FFD15C" d="M153.32,138.416c-0.877,1.463-2.217,2.342-3.221,2.174c-2.008,3.725-4.936,6.486-8.199,6.486
		s-6.191-2.805-8.199-6.486c-1.004,0.127-2.342-0.711-3.221-2.174c-1.047-1.715-1.088-3.6-0.084-4.227
		c0.25-0.125,0.502-0.209,0.795-0.166c0.67,1.715,1.59,2.76,1.59,2.76c-0.963-5.313,2.969-5.898,2.301-11.001
		c0,0,2.469,5.48,9.537,1.63l-0.543,1.047c9.871-2.217,6.568,9.412,6.484,9.705c1.129-1.422,1.84-2.844,2.258-4.141
		c0.168,0,0.377,0.084,0.502,0.166C154.408,134.777,154.367,136.701,153.32,138.416L153.32,138.416z M153.32,138.416"/>
	<path fill="#334B5E" d="M147.59,120.26c0.795-0.083,2.092,0.627,2.092,0.627c-3.557-4.059-9.371-1.464-9.371-1.464
		c1.967-1.674,3.723-1.506,3.723-1.506c-8.324-1.254-9.746,3.722-9.746,3.722c-0.377-0.585-0.377-1.42-0.334-1.839
		c-0.586,1.004,0.041,3.011,0.041,3.011c-0.586-1.463-2.635-1.213-2.635-1.213c1.756,0.293,2.049,1.381,2.049,1.381
		c-4.393,1.631-3.641,6.191-3.641,6.191l1.047-1.256c-1.297,4.979,2.008,8.828,2.008,8.828c-0.961-5.313,2.971-5.898,2.301-11.001
		c0,0,2.469,5.48,9.539,1.63l-0.545,1.047c9.998-2.26,6.484,9.746,6.484,9.746c3.557-4.518,3.012-9.16,3.012-9.16l0.418,1.672
		C155.16,123.147,147.59,120.26,147.59,120.26L147.59,120.26z M147.59,120.26"/>
</g>
<g>
	<path fill="#2A81BA" d="M98.321,204.512c0,14.67-11.893,26.564-26.564,26.564c-14.671,0-26.564-11.895-26.564-26.564
		s11.893-26.564,26.564-26.564C86.428,177.947,98.321,189.842,98.321,204.512L98.321,204.512z M98.321,204.512"/>
	<path fill="#E7E9ED" d="M71.882,215.932c-0.041,0-0.083,0.043-0.167,0.043c-0.042,0-0.083-0.043-0.167-0.043H71.882z
		 M71.882,215.932"/>
	<path fill="#E7E9ED" d="M93.134,220.199c-4.811,6.566-12.634,10.877-21.419,10.877c-8.784,0-16.565-4.268-21.418-10.877
		c3.765-4.016,8.869-6.15,13.136-7.238c-0.376,3.055,1.213,7.154,1.254,7.029c1.59-3.682,6.986-4.016,6.986-4.016
		s5.397,0.293,7.029,4.016c0.042,0.084,1.631-3.975,1.255-7.029C84.265,214.049,89.369,216.184,93.134,220.199L93.134,220.199z
		 M93.134,220.199"/>
	<path fill="#FFD15C" d="M78.325,210.158c0,0.545-0.335,3.432-6.443,5.773h-0.334c-6.108-2.342-6.442-5.229-6.442-5.773
		c0.042-1.088,0.293-2.174,0.753-3.18c1.673,1.885,3.682,3.139,5.856,3.139c2.134,0,4.184-1.213,5.857-3.139
		C78.032,207.984,78.325,209.07,78.325,210.158L78.325,210.158z M78.325,210.158"/>
	<path fill="#F15640" d="M75.354,216.895l-1.338,2.676h-4.602l-1.338-2.676c1.841-0.795,3.639-0.92,3.639-0.92
		S73.556,216.1,75.354,216.895L75.354,216.895z M75.354,216.895"/>
	<path fill="#F3715B" d="M67.992,230.824c1.214,0.168,2.468,0.252,3.765,0.252c1.255,0,2.51-0.084,3.765-0.252l-1.464-11.211h-4.602
		L67.992,230.824z M67.992,230.824"/>
	<path fill="#FFFFFF" d="M78.325,210.076c0,0,0.292,3.346-6.611,5.898c0,0,5.397,0.293,7.029,4.016
		C78.785,220.158,81.922,212.041,78.325,210.076L78.325,210.076z M78.325,210.076"/>
	<path fill="#FFFFFF" d="M65.105,210.076c-3.556,1.965-0.46,10.039-0.376,9.914c1.589-3.682,7.028-4.016,7.028-4.016
		C64.813,213.422,65.105,210.076,65.105,210.076L65.105,210.076z M65.105,210.076"/>
	<path fill="#F8B54D" d="M77.907,207.816c-1.757,1.881-3.849,3.096-6.192,3.096c-2.342,0-4.434-1.215-6.191-3.096
		c0.084-0.293,0.209-0.586,0.335-0.838c1.673,1.885,3.682,3.139,5.856,3.139c2.176,0,4.184-1.213,5.857-3.139
		C77.697,207.23,77.823,207.523,77.907,207.816L77.907,207.816z M77.907,207.816"/>
	<path fill="#FFD15C" d="M83.135,201.416c-0.877,1.465-2.216,2.342-3.22,2.174c-2.008,3.725-4.937,6.486-8.2,6.486
		c-3.263,0-6.191-2.805-8.199-6.486c-1.004,0.127-2.342-0.709-3.221-2.174c-1.046-1.715-1.088-3.6-0.083-4.227
		c0.251-0.125,0.501-0.207,0.795-0.166c0.669,1.715,1.589,2.762,1.589,2.762c-0.962-5.314,2.97-5.9,2.301-11.002
		c0,0,2.468,5.479,9.538,1.631l-0.544,1.045c9.873-2.217,6.568,9.412,6.485,9.705c1.129-1.422,1.84-2.844,2.259-4.141
		c0.167,0,0.376,0.084,0.501,0.166C84.223,197.777,84.182,199.701,83.135,201.416L83.135,201.416z M83.135,201.416"/>
	<path fill="#334B5E" d="M77.404,183.261c0.795-0.083,2.092,0.628,2.092,0.628c-3.556-4.059-9.37-1.465-9.37-1.465
		c1.965-1.674,3.723-1.506,3.723-1.506c-8.325-1.255-9.748,3.723-9.748,3.723c-0.376-0.586-0.376-1.422-0.334-1.84
		c-0.586,1.004,0.042,3.012,0.042,3.012c-0.585-1.465-2.635-1.213-2.635-1.213c1.757,0.292,2.05,1.38,2.05,1.38
		c-4.393,1.632-3.641,6.192-3.641,6.192l1.046-1.256c-1.296,4.979,2.008,8.826,2.008,8.826c-0.962-5.313,2.971-5.898,2.301-11.002
		c0,0,2.468,5.48,9.539,1.631l-0.544,1.047c9.998-2.26,6.484,9.746,6.484,9.746c3.556-4.518,3.012-9.16,3.012-9.16l0.418,1.674
		C84.976,186.148,77.404,183.261,77.404,183.261L77.404,183.261z M77.404,183.261"/>
</g>
<g>
	<path fill="#2A81BA" d="M237.451,204.512c0,14.67-11.893,26.564-26.563,26.564c-14.672,0-26.564-11.895-26.564-26.564
		c0-14.672,11.893-26.564,26.564-26.564C225.559,177.947,237.451,189.84,237.451,204.512L237.451,204.512z M237.451,204.512"/>
	<path fill="#E7E9ED" d="M211.014,215.932c-0.041,0-0.084,0.043-0.168,0.043c-0.041,0-0.082-0.043-0.166-0.043H211.014z
		 M211.014,215.932"/>
	<path fill="#E7E9ED" d="M232.266,220.199c-4.811,6.566-12.635,10.877-21.42,10.877c-8.783,0-16.566-4.268-21.418-10.877
		c3.766-4.016,8.869-6.15,13.135-7.238c-0.375,3.055,1.215,7.154,1.256,7.029c1.59-3.682,6.986-4.016,6.986-4.016
		s5.396,0.293,7.027,4.016c0.043,0.084,1.633-3.975,1.256-7.029C223.396,214.049,228.5,216.184,232.266,220.199L232.266,220.199z
		 M232.266,220.199"/>
	<path fill="#FFD15C" d="M217.457,210.158c0,0.545-0.336,3.432-6.443,5.773h-0.334c-6.109-2.342-6.443-5.229-6.443-5.773
		c0.041-1.088,0.293-2.174,0.754-3.18c1.672,1.885,3.682,3.139,5.855,3.139c2.135,0,4.184-1.213,5.857-3.139
		C217.162,207.984,217.457,209.07,217.457,210.158L217.457,210.158z M217.457,210.158"/>
	<path fill="#F15640" d="M214.486,216.895l-1.34,2.676h-4.602l-1.338-2.676c1.84-0.795,3.639-0.92,3.639-0.92
		S212.688,216.1,214.486,216.895L214.486,216.895z M214.486,216.895"/>
	<path fill="#F3715B" d="M207.123,230.824c1.213,0.168,2.469,0.252,3.766,0.252c1.254,0,2.51-0.084,3.764-0.252l-1.463-11.211
		h-4.602L207.123,230.824z M207.123,230.824"/>
	<path fill="#FFFFFF" d="M217.457,210.076c0,0,0.291,3.346-6.611,5.898c0,0,5.396,0.293,7.029,4.016
		C217.916,220.158,221.053,212.041,217.457,210.076L217.457,210.076z M217.457,210.076"/>
	<path fill="#FFFFFF" d="M204.236,210.076c-3.557,1.965-0.459,10.039-0.377,9.914c1.59-3.682,7.029-4.016,7.029-4.016
		C203.943,213.422,204.236,210.076,204.236,210.076L204.236,210.076z M204.236,210.076"/>
	<path fill="#F8B54D" d="M217.037,207.816c-1.756,1.881-3.848,3.096-6.191,3.096c-2.342,0-4.434-1.215-6.191-3.096
		c0.084-0.293,0.209-0.586,0.336-0.838c1.672,1.885,3.682,3.139,5.855,3.139c2.176,0,4.184-1.213,5.857-3.139
		C216.828,207.23,216.953,207.523,217.037,207.816L217.037,207.816z M217.037,207.816"/>
	<path fill="#FFD15C" d="M222.266,201.416c-0.877,1.463-2.215,2.342-3.221,2.174c-2.008,3.725-4.936,6.486-8.199,6.486
		s-6.191-2.805-8.199-6.486c-1.004,0.127-2.342-0.711-3.221-2.174c-1.047-1.715-1.088-3.6-0.084-4.227
		c0.252-0.125,0.502-0.209,0.795-0.166c0.67,1.715,1.59,2.76,1.59,2.76c-0.963-5.313,2.971-5.898,2.301-11.001
		c0,0,2.469,5.479,9.537,1.63l-0.543,1.047c9.873-2.217,6.568,9.412,6.484,9.705c1.129-1.422,1.84-2.844,2.26-4.141
		c0.166,0,0.375,0.084,0.5,0.166C223.354,197.777,223.313,199.701,222.266,201.416L222.266,201.416z M222.266,201.416"/>
	<path fill="#334B5E" d="M216.535,183.261c0.795-0.083,2.092,0.628,2.092,0.628c-3.555-4.059-9.369-1.465-9.369-1.465
		c1.965-1.674,3.723-1.506,3.723-1.506c-8.326-1.255-9.748,3.722-9.748,3.722c-0.377-0.585-0.377-1.421-0.334-1.839
		c-0.586,1.004,0.041,3.011,0.041,3.011c-0.584-1.463-2.635-1.213-2.635-1.213c1.758,0.293,2.051,1.381,2.051,1.381
		c-4.395,1.631-3.641,6.19-3.641,6.19l1.045-1.256c-1.295,4.979,2.008,8.828,2.008,8.828c-0.961-5.313,2.971-5.898,2.301-11.001
		c0,0,2.469,5.479,9.539,1.63l-0.545,1.047c9.998-2.26,6.484,9.746,6.484,9.746c3.557-4.518,3.012-9.16,3.012-9.16l0.42,1.672
		C224.107,186.147,216.535,183.261,216.535,183.261L216.535,183.261z M216.535,183.261"/>
</g>
<g>
	<path fill="#F5846B" d="M168.998,74.114c0,14.873-12.059,26.93-26.932,26.93s-26.93-12.057-26.93-26.93
		c0-14.875,12.057-26.931,26.93-26.931S168.998,59.239,168.998,74.114L168.998,74.114z M168.998,74.114"/>
	<path fill="#8BD7F8" d="M142.193,85.649c-0.042,0-0.084,0.041-0.127,0.041c-0.042,0-0.084-0.041-0.127-0.041H142.193z
		 M142.193,85.649"/>
	<path fill="#8BD7F8" d="M162.975,91.079c-4.919,6.064-12.469,9.965-20.908,9.965s-15.988-3.9-20.908-9.965
		c3.52-4.709,8.906-7.041,13.317-8.188c-0.339,2.799,1.103,6.533,1.145,6.447c1.485-3.393,6.446-3.689,6.446-3.689
		s4.963,0.297,6.404,3.689c0.043,0.086,1.526-3.648,1.145-6.447C154.069,84.038,159.498,86.37,162.975,91.079L162.975,91.079z
		 M162.975,91.079"/>
	<path fill="#FFFFFF" d="M148.132,80.263v0.043c0,0.424-0.212,3.139-5.938,5.301h-0.254c-5.725-2.162-5.938-4.877-5.938-5.301
		v-0.043c0-0.551,0.127-1.102,0.254-1.654c1.654,2.078,3.648,3.479,5.811,3.479c2.164,0,4.156-1.4,5.811-3.479
		C148.004,79.161,148.132,79.712,148.132,80.263L148.132,80.263z M148.132,80.263"/>
	<path fill="#56C0EA" d="M148.132,80.263c0,0,0.296,3.055-6.065,5.428c0,0,4.963,0.297,6.404,3.691
		C148.556,89.466,151.396,82.087,148.132,80.263L148.132,80.263z M148.132,80.263"/>
	<path fill="#56C0EA" d="M136.002,80.263c-3.266,1.824-0.424,9.203-0.34,9.076c1.484-3.393,6.404-3.689,6.404-3.689
		C135.705,83.317,136.002,80.263,136.002,80.263L136.002,80.263z M136.002,80.263"/>
	<path fill="#FFFFFF" d="M150.973,69.534c-0.381,2.629-1.526,5.09-3.436,6.953c-0.381,0.383-0.721,0.68-1.145,0.977l-0.679-2.162
		h-7.294l-0.68,2.162c-1.355-1.018-4.197-3.859-4.24-6.531c-1.188-15.225,10.475-12.002,10.475-12.002
		C151.821,58.378,151.566,65.292,150.973,69.534L150.973,69.534z M150.973,69.534"/>
	<path fill="#FFFFFF" d="M152.542,72.29c-0.594,0.975-1.399,1.654-2.163,1.908c0.297-0.678,0.552-1.398,0.764-2.121v-0.043
		l0.508-1.906h-0.041c0.169-0.637,0.339-1.273,0.467-1.908c0.169,0,0.34,0.084,0.509,0.17
		C153.518,68.981,153.475,70.722,152.542,72.29L152.542,72.29z M152.542,72.29"/>
	<path fill="#FFFFFF" d="M133.754,74.198c-0.763-0.254-1.568-0.934-2.162-1.908c-0.976-1.568-0.976-3.309-0.043-3.859
		c0.085-0.041,0.127-0.084,0.212-0.084c0.509,1.992,1.103,3.477,1.23,3.773C133.203,72.8,133.457,73.521,133.754,74.198
		L133.754,74.198z M133.754,74.198"/>
	<path fill="#495D76" d="M146.689,54.69c0.34-3.902-5.854-3.647-5.854-3.647c-9.371,1.357-10.389,10.093-10.389,10.093l1.271-1.525
		c-1.994,4.367,1.018,11.875,1.272,12.467c1.569,5.217,5.047,10.01,9.075,10.01c4.029,0,7.507-4.793,9.076-10.01v-0.043
		c0.17-0.635,0.339-1.271,0.467-1.906h-0.043c0.85-3.395,1.781-6.83,1.781-6.83C155.766,51.127,146.689,54.69,146.689,54.69
		L146.689,54.69z M150.973,69.534c-0.381,2.629-1.526,5.09-3.436,6.953c-0.381,0.383-0.763,0.68-1.145,0.977l-0.679-2.121h-7.294
		l-0.68,2.164c-1.355-1.02-2.502-2.418-3.435-4.029c-0.424-0.848-0.679-1.738-0.806-2.502
		c-1.188-15.226,10.475-12.002,10.475-12.002C151.821,58.378,151.566,65.292,150.973,69.534L150.973,69.534z M150.973,69.534"/>
	<path fill="#495D76" d="M146.689,54.69c0.34-3.902-5.854-3.647-5.854-3.647c-9.371,1.357-10.389,10.093-10.389,10.093l1.271-1.525
		c-1.994,4.367,1.018,11.875,1.272,12.467c1.569,5.217,5.047,10.01,9.075,10.01c4.029,0,7.507-4.793,9.076-10.01v-0.043
		c0.17-0.635,0.339-1.271,0.467-1.906h-0.043c0.85-3.395,1.781-6.83,1.781-6.83C155.766,51.127,146.689,54.69,146.689,54.69
		L146.689,54.69z M150.973,69.534c-0.381,2.629-1.526,5.09-3.436,6.953c-0.381,0.383-0.763,0.68-1.145,0.977l-0.679-2.121h-7.294
		l-0.68,2.164c-1.355-1.02-2.502-2.418-3.435-4.029c-0.424-0.848-0.679-1.738-0.806-2.502
		c-1.188-15.226,10.475-12.002,10.475-12.002C151.821,58.378,151.566,65.292,150.973,69.534L150.973,69.534z M150.973,69.534"/>
	<path fill="#495D76" d="M146.689,54.69c0.34-3.902-5.854-3.647-5.854-3.647c-9.371,1.357-10.389,10.093-10.389,10.093l1.271-1.525
		c-1.994,4.367,1.018,11.875,1.272,12.467c1.569,5.217,5.047,10.01,9.075,10.01c4.029,0,7.507-4.793,9.076-10.01v-0.043
		c0.17-0.635,0.339-1.271,0.467-1.906h-0.043c0.85-3.395,1.781-6.83,1.781-6.83C155.766,51.127,146.689,54.69,146.689,54.69
		L146.689,54.69z M150.973,69.534c-0.381,2.629-1.526,5.09-3.436,6.953c-0.381,0.383-0.763,0.68-1.145,0.977l-0.679-2.121h-7.294
		l-0.68,2.164c-1.355-1.02-4.197-3.859-4.24-6.531c-1.188-15.226,10.475-12.002,10.475-12.002
		C151.821,58.378,151.566,65.292,150.973,69.534L150.973,69.534z M150.973,69.534"/>
	<path fill="#FFFFFF" d="M139.098,76.784c0.721,0.807,1.781,1.357,2.969,1.357s2.248-0.508,2.969-1.357H139.098z M139.098,76.784"/>
</g>
<g>
	<path fill="#FFD15C" d="M237.378,73.727c0,14.745-11.953,26.699-26.699,26.699s-26.699-11.954-26.699-26.699
		c0-14.747,11.953-26.7,26.699-26.7S237.378,58.98,237.378,73.727L237.378,73.727z M237.378,73.727"/>
	<path fill="#FFFFFF" d="M220.812,97.566v0.884c-3.111,1.262-6.518,1.977-10.092,1.977s-7.021-0.715-10.133-1.977v-0.841
		c0-1.22,0.127-2.396,0.295-3.532l0.631-0.505l0.168-0.125l8.704-6.686l0.251-0.168l0.337,0.251l8.745,6.686l0.127,0.085
		l0.631,0.462v0.043C220.686,95.212,220.812,96.389,220.812,97.566L220.812,97.566z M220.812,97.566"/>
	<path fill="#334B5E" d="M202.815,67.797c-0.168-0.294-0.084-0.672,0.084-0.925c0.168-0.294,0.421-0.505,0.631-0.756
		c0.506-0.548,0.884-1.221,0.799-1.935c-0.041-0.379-0.252-0.715-0.378-1.094c-0.126-0.378-0.21-0.799,0-1.135
		c0.085-0.084,0.169-0.169,0.21-0.295c0.547-0.714,0.211-1.682,0.168-2.564c-0.084-1.472,0.631-2.859,1.304-4.163
		c0.462-0.883,0.968-1.85,1.808-2.396c0.506-0.337,1.137-0.505,1.725-0.63c1.598-0.253,3.322,0.042,4.625,1.009
		c1.009,0.757,1.725,1.85,2.187,3.027c0.462,1.177,0.715,2.438,0.925,3.658c0.126,0.714,0.211,1.556-0.21,2.145
		c-0.169,0.252-0.421,0.42-0.589,0.672c-0.21,0.336-0.294,0.715-0.378,1.094c-0.085,0.378-0.126,0.799,0,1.178
		c0.21,0.504,0.714,0.756,1.093,1.136c0.463,0.462,0.631,1.135,0.799,1.765c0.084,0.253,0.127,0.547,0.127,0.799
		c-0.084,0.673-0.716,1.094-1.346,1.347c-2.145,0.925-4.5,1.135-6.813,1.135c-0.631,0-1.262,0-1.85-0.21
		c-0.925-0.253-1.682-0.884-2.439-1.515C204.918,68.849,203.11,68.302,202.815,67.797L202.815,67.797z M202.815,67.797"/>
	<path fill="#F8B54D" d="M213.495,64.896l1.304,1.052v4.288l0.168,3.953l-3.994,0.883l-4.835-1.556v-4.625l0.841-3.196l0.884-0.799
		l2.816-0.294L213.495,64.896z M213.495,64.896"/>
	<path fill="#FFFFFF" d="M206.433,73.516c0,0,3.111,1.135,8.366,0l-2.48,11.059l-5.886,0.883V73.516z M206.433,73.516"/>
	<path fill="#F3715B" d="M200.798,69.354c0,0-3.279,9.166,0.756,24.344l1.851-4.624c0,0-0.925-10.428,0.632-12.614l-1.01-6.013
		L200.798,69.354z M200.798,69.354"/>
	<path fill="#F15640" d="M207.862,64.896c0,0-1.893,2.775-7.064,4.458c0,0,7.064,8.955,0,24.598c0,0,2.858,4.751,7.064,5.423
		c0,0,2.69-12.992,3.531-13.58l-3.658-5.509l-1.303-6.728l0.588-6.56L207.862,64.896z M207.862,64.896"/>
	<path fill="#F15640" d="M220.56,69.354c0,0,3.279,9.166-0.757,24.344l-1.85-4.624c0,0,0.925-10.428-0.632-12.614l1.01-6.013
		L220.56,69.354z M220.56,69.354"/>
	<path fill="#F3715B" d="M213.495,64.896c0,0,1.893,2.775,7.064,4.458c0,0-7.064,8.955,0,24.598c0,0-2.859,4.751-7.064,5.423
		c0,0-2.691-12.992-3.531-13.58l3.658-5.509l1.303-6.728l-0.588-6.56L213.495,64.896z M213.495,64.896"/>
	<path fill="#F8B54D" d="M211.015,65.318l2.48-0.422c0,0-1.092-1.597-1.135-4.036h-3.321c-0.042,2.439-1.136,4.036-1.136,4.036
		l2.481,0.422v0.125l0.335-0.042l0.337,0.042v-0.125H211.015z M211.015,65.318"/>
	<path fill="#FFD15C" d="M214.841,59.935c0,3.345-1.92,6.056-4.288,6.056c-2.369,0-4.289-2.711-4.289-6.056
		c0-3.344,1.92-6.055,4.289-6.055C212.921,53.88,214.841,56.591,214.841,59.935L214.841,59.935z M214.841,59.935"/>
	<path fill="#334B5E" d="M209.669,53.25c0,0,2.104,5.633,6.35,7.231l-1.555-6.097l-3.491-1.725L209.669,53.25z M209.669,53.25"/>
	<path fill="#334B5E" d="M210.847,53.292c0,0-3.111,4.582-5.298,5.634l0.589-3.532l2.061-1.935L210.847,53.292z M210.847,53.292"/>
	<path fill="#FFFFFF" d="M214.925,67.503c-0.84,1.178-2.48,2.019-4.372,2.019s-3.532-0.799-4.374-2.019h-0.168
		c0.842,1.261,2.566,2.145,4.542,2.145s3.657-0.884,4.541-2.145H214.925z M214.925,67.503"/>
	<path fill="#334B5E" d="M210.973,69.69c0,0.211-0.084,1.01-0.294,1.01s-0.294-0.799-0.294-1.01v-0.168
		c0.042-0.211,0.126-0.294,0.294-0.294c0.125,0,0.252,0.041,0.294,0.252h-0.126c-0.043-0.169-0.084-0.169-0.168-0.169
		s-0.126,0-0.168,0.169v0.168c0,0.42,0.125,0.841,0.168,0.884c0.084-0.043,0.168-0.464,0.168-0.884v-0.043h0.126V69.69z
		 M210.973,69.69"/>
	<path fill="#E7E9ED" d="M211.52,71.246c0,0.465-0.376,0.841-0.841,0.841s-0.842-0.376-0.842-0.841c0-0.464,0.377-0.841,0.842-0.841
		S211.52,70.782,211.52,71.246L211.52,71.246z M211.52,71.246"/>
	<path fill="#C5C9CF" d="M210.763,70.909c0,0.187-0.037,0.337-0.084,0.337s-0.084-0.15-0.084-0.337c0-0.186,0.037-0.336,0.084-0.336
		S210.763,70.723,210.763,70.909L210.763,70.909z M210.763,70.909"/>
	<path fill="#C5C9CF" d="M210.763,71.582c0,0.187-0.037,0.337-0.084,0.337s-0.084-0.15-0.084-0.337c0-0.186,0.037-0.336,0.084-0.336
		S210.763,71.396,210.763,71.582L210.763,71.582z M210.763,71.582"/>
	<path fill="#C5C9CF" d="M211.394,71.246c0,0.046-0.15,0.085-0.337,0.085c-0.186,0-0.337-0.039-0.337-0.085
		c0-0.047,0.151-0.084,0.337-0.084C211.243,71.162,211.394,71.199,211.394,71.246L211.394,71.246z M211.394,71.246"/>
	<path fill="#C5C9CF" d="M210.679,71.246c0,0.046-0.15,0.085-0.336,0.085c-0.187,0-0.337-0.039-0.337-0.085
		c0-0.047,0.15-0.084,0.337-0.084C210.528,71.162,210.679,71.199,210.679,71.246L210.679,71.246z M210.679,71.246"/>
	<path fill="#C5C9CF" d="M211.174,70.753c0.032,0.031-0.047,0.165-0.179,0.296c-0.131,0.132-0.264,0.212-0.297,0.179
		c-0.033-0.032,0.047-0.165,0.178-0.297C211.008,70.799,211.141,70.719,211.174,70.753L211.174,70.753z M211.174,70.753"/>
	<path fill="#C5C9CF" d="M210.666,71.248c0.033,0.034-0.046,0.167-0.179,0.298c-0.131,0.132-0.264,0.212-0.297,0.179
		c-0.032-0.033,0.047-0.165,0.179-0.297C210.5,71.295,210.634,71.216,210.666,71.248L210.666,71.248z M210.666,71.248"/>
	<path fill="#C5C9CF" d="M211.179,71.728c-0.033,0.032-0.165-0.048-0.297-0.178c-0.131-0.132-0.211-0.265-0.18-0.298
		c0.034-0.033,0.167,0.047,0.299,0.178C211.132,71.562,211.212,71.695,211.179,71.728L211.179,71.728z M211.179,71.728"/>
	<path fill="#C5C9CF" d="M210.698,71.235c-0.033,0.033-0.166-0.047-0.297-0.179c-0.131-0.131-0.211-0.264-0.18-0.298
		c0.034-0.031,0.167,0.049,0.298,0.179C210.651,71.069,210.731,71.202,210.698,71.235L210.698,71.235z M210.698,71.235"/>
	<path fill="#F3715B" d="M207.862,64.896c0,0-2.986,10.639,3.531,20.898c0,0-6.098-3.532-7.357-15.012l2.018-0.294l-1.388-0.925
		C204.708,69.564,204.582,65.906,207.862,64.896L207.862,64.896z M207.862,64.896"/>
	<path fill="#F15640" d="M213.495,64.896c0,0,2.986,10.639-3.531,20.898c0,0,6.097-3.532,7.357-15.012l-2.018-0.294l1.388-0.925
		C216.649,69.564,216.775,65.906,213.495,64.896L213.495,64.896z M213.495,64.896"/>
</g>
<g>
	<path fill="#F5846B" d="M98.813,141.512c0,14.873-12.059,26.93-26.932,26.93s-26.93-12.057-26.93-26.93
		c0-14.875,12.057-26.931,26.93-26.931S98.813,126.637,98.813,141.512L98.813,141.512z M98.813,141.512"/>
	<path fill="#8BD7F8" d="M72.008,153.047c-0.042,0-0.084,0.041-0.127,0.041c-0.042,0-0.084-0.041-0.127-0.041H72.008z
		 M72.008,153.047"/>
	<path fill="#8BD7F8" d="M92.789,158.477c-4.919,6.064-12.469,9.965-20.908,9.965s-15.988-3.9-20.908-9.965
		c3.52-4.709,8.906-7.041,13.317-8.188c-0.339,2.799,1.103,6.533,1.145,6.447c1.485-3.393,6.446-3.689,6.446-3.689
		s4.963,0.297,6.404,3.689c0.043,0.086,1.526-3.648,1.145-6.447C83.884,151.436,89.313,153.768,92.789,158.477L92.789,158.477z
		 M92.789,158.477"/>
	<path fill="#FFFFFF" d="M77.946,147.66v0.043c0,0.424-0.212,3.139-5.938,5.301h-0.254c-5.725-2.162-5.938-4.877-5.938-5.301v-0.043
		c0-0.551,0.127-1.102,0.254-1.654c1.654,2.078,3.648,3.479,5.811,3.479c2.164,0,4.156-1.4,5.811-3.479
		C77.818,146.559,77.946,147.109,77.946,147.66L77.946,147.66z M77.946,147.66"/>
	<path fill="#56C0EA" d="M77.946,147.66c0,0,0.296,3.055-6.065,5.428c0,0,4.963,0.297,6.404,3.691
		C78.37,156.863,81.211,149.484,77.946,147.66L77.946,147.66z M77.946,147.66"/>
	<path fill="#56C0EA" d="M65.816,147.66c-3.266,1.824-0.424,9.203-0.34,9.076c1.484-3.393,6.404-3.689,6.404-3.689
		C65.52,150.715,65.816,147.66,65.816,147.66L65.816,147.66z M65.816,147.66"/>
	<path fill="#FFFFFF" d="M80.787,136.932c-0.381,2.629-1.526,5.09-3.436,6.953c-0.381,0.383-0.721,0.68-1.145,0.977l-0.679-2.162
		h-7.294l-0.68,2.162c-1.355-1.018-4.197-3.859-4.24-6.531c-1.188-15.225,10.475-12.002,10.475-12.002
		C81.636,125.776,81.381,132.689,80.787,136.932L80.787,136.932z M80.787,136.932"/>
	<path fill="#FFFFFF" d="M82.356,139.688c-0.594,0.975-1.399,1.654-2.163,1.908c0.297-0.678,0.552-1.398,0.764-2.121v-0.043
		l0.508-1.906h-0.041c0.169-0.637,0.339-1.273,0.467-1.908c0.169,0,0.34,0.084,0.509,0.17
		C83.332,136.379,83.289,138.119,82.356,139.688L82.356,139.688z M82.356,139.688"/>
	<path fill="#FFFFFF" d="M63.568,141.596c-0.763-0.254-1.568-0.934-2.162-1.908c-0.976-1.568-0.976-3.309-0.043-3.859
		c0.085-0.041,0.127-0.084,0.212-0.084c0.509,1.992,1.103,3.477,1.23,3.773C63.018,140.197,63.271,140.918,63.568,141.596
		L63.568,141.596z M63.568,141.596"/>
	<path fill="#495D76" d="M76.504,122.087c0.34-3.902-5.854-3.647-5.854-3.647c-9.371,1.357-10.389,10.093-10.389,10.093l1.271-1.525
		c-1.994,4.367,1.018,11.875,1.272,12.467c1.569,5.217,5.047,10.01,9.075,10.01c4.029,0,7.507-4.793,9.076-10.01v-0.043
		c0.17-0.635,0.339-1.271,0.467-1.906h-0.043c0.85-3.395,1.781-6.83,1.781-6.83C85.58,118.524,76.504,122.087,76.504,122.087
		L76.504,122.087z M80.787,136.932c-0.381,2.629-1.526,5.09-3.436,6.953c-0.381,0.383-0.763,0.68-1.145,0.977l-0.679-2.121h-7.294
		l-0.68,2.164c-1.355-1.02-2.502-2.418-3.435-4.029c-0.424-0.848-0.679-1.738-0.806-2.502
		c-1.188-15.226,10.475-12.002,10.475-12.002C81.636,125.776,81.381,132.689,80.787,136.932L80.787,136.932z M80.787,136.932"/>
	<path fill="#495D76" d="M76.504,122.087c0.34-3.902-5.854-3.647-5.854-3.647c-9.371,1.357-10.389,10.093-10.389,10.093l1.271-1.525
		c-1.994,4.367,1.018,11.875,1.272,12.467c1.569,5.217,5.047,10.01,9.075,10.01c4.029,0,7.507-4.793,9.076-10.01v-0.043
		c0.17-0.635,0.339-1.271,0.467-1.906h-0.043c0.85-3.395,1.781-6.83,1.781-6.83C85.58,118.524,76.504,122.087,76.504,122.087
		L76.504,122.087z M80.787,136.932c-0.381,2.629-1.526,5.09-3.436,6.953c-0.381,0.383-0.763,0.68-1.145,0.977l-0.679-2.121h-7.294
		l-0.68,2.164c-1.355-1.02-2.502-2.418-3.435-4.029c-0.424-0.848-0.679-1.738-0.806-2.502
		c-1.188-15.226,10.475-12.002,10.475-12.002C81.636,125.776,81.381,132.689,80.787,136.932L80.787,136.932z M80.787,136.932"/>
	<path fill="#495D76" d="M76.504,122.087c0.34-3.902-5.854-3.647-5.854-3.647c-9.371,1.357-10.389,10.093-10.389,10.093l1.271-1.525
		c-1.994,4.367,1.018,11.875,1.272,12.467c1.569,5.217,5.047,10.01,9.075,10.01c4.029,0,7.507-4.793,9.076-10.01v-0.043
		c0.17-0.635,0.339-1.271,0.467-1.906h-0.043c0.85-3.395,1.781-6.83,1.781-6.83C85.58,118.524,76.504,122.087,76.504,122.087
		L76.504,122.087z M80.787,136.932c-0.381,2.629-1.526,5.09-3.436,6.953c-0.381,0.383-0.763,0.68-1.145,0.977l-0.679-2.121h-7.294
		l-0.68,2.164c-1.355-1.02-4.197-3.859-4.24-6.531c-1.188-15.226,10.475-12.002,10.475-12.002
		C81.636,125.776,81.381,132.689,80.787,136.932L80.787,136.932z M80.787,136.932"/>
	<path fill="#FFFFFF" d="M68.912,144.182c0.721,0.807,1.781,1.357,2.969,1.357s2.248-0.508,2.969-1.357H68.912z M68.912,144.182"/>
</g>
<g>
	<path fill="#FFD15C" d="M168.893,204.514c0,14.745-11.953,26.698-26.699,26.698s-26.699-11.953-26.699-26.698
		c0-14.748,11.953-26.701,26.699-26.701S168.893,189.766,168.893,204.514L168.893,204.514z M168.893,204.514"/>
	<path fill="#FFFFFF" d="M152.326,228.353v0.883c-3.111,1.262-6.518,1.977-10.092,1.977s-7.021-0.715-10.133-1.977v-0.84
		c0-1.221,0.127-2.396,0.295-3.533l0.631-0.504l0.168-0.125l8.704-6.686l0.251-0.168l0.337,0.25l8.745,6.686l0.127,0.086
		l0.631,0.461v0.043C152.2,225.999,152.326,227.175,152.326,228.353L152.326,228.353z M152.326,228.353"/>
	<path fill="#334B5E" d="M134.33,198.584c-0.168-0.295-0.084-0.672,0.084-0.926c0.168-0.293,0.421-0.504,0.631-0.756
		c0.506-0.547,0.884-1.221,0.799-1.934c-0.041-0.379-0.252-0.715-0.378-1.094s-0.21-0.799,0-1.135
		c0.085-0.084,0.169-0.17,0.21-0.295c0.547-0.715,0.211-1.682,0.168-2.564c-0.084-1.473,0.631-2.859,1.304-4.164
		c0.462-0.883,0.968-1.85,1.808-2.396c0.506-0.336,1.137-0.504,1.725-0.629c1.598-0.254,3.322,0.041,4.625,1.008
		c1.009,0.758,1.725,1.85,2.187,3.027s0.715,2.439,0.925,3.658c0.126,0.715,0.211,1.557-0.21,2.145
		c-0.169,0.252-0.421,0.42-0.589,0.672c-0.21,0.336-0.294,0.715-0.378,1.094c-0.085,0.379-0.126,0.799,0,1.178
		c0.21,0.504,0.714,0.756,1.093,1.137c0.463,0.461,0.631,1.135,0.799,1.764c0.084,0.254,0.127,0.547,0.127,0.799
		c-0.084,0.674-0.716,1.094-1.346,1.348c-2.145,0.924-4.5,1.135-6.813,1.135c-0.631,0-1.262,0-1.85-0.211
		c-0.925-0.252-1.682-0.883-2.439-1.514C136.433,199.635,134.625,199.088,134.33,198.584L134.33,198.584z M134.33,198.584"/>
	<path fill="#F8B54D" d="M145.01,195.682l1.304,1.053v4.287l0.168,3.953l-3.994,0.883l-4.835-1.555v-4.625l0.841-3.197l0.884-0.799
		l2.816-0.293L145.01,195.682z M145.01,195.682"/>
	<path fill="#FFFFFF" d="M137.947,204.303c0,0,3.111,1.135,8.366,0l-2.48,11.058l-5.886,0.883V204.303z M137.947,204.303"/>
	<path fill="#F3715B" d="M132.313,200.141c0,0-3.279,9.166,0.756,24.343l1.851-4.623c0,0-0.925-10.429,0.632-12.614l-1.01-6.014
		L132.313,200.141z M132.313,200.141"/>
	<path fill="#F15640" d="M139.377,195.682c0,0-1.893,2.775-7.064,4.459c0,0,7.064,8.955,0,24.597c0,0,2.858,4.752,7.064,5.424
		c0,0,2.69-12.992,3.531-13.58l-3.658-5.509l-1.303-6.729l0.588-6.559L139.377,195.682z M139.377,195.682"/>
	<path fill="#F15640" d="M152.074,200.141c0,0,3.279,9.166-0.757,24.343l-1.85-4.623c0,0,0.925-10.429-0.632-12.614l1.01-6.014
		L152.074,200.141z M152.074,200.141"/>
	<path fill="#F3715B" d="M145.01,195.682c0,0,1.893,2.775,7.064,4.459c0,0-7.064,8.955,0,24.597c0,0-2.859,4.752-7.064,5.424
		c0,0-2.691-12.992-3.531-13.58l3.658-5.509l1.303-6.729l-0.588-6.559L145.01,195.682z M145.01,195.682"/>
	<path fill="#F8B54D" d="M142.529,196.104l2.48-0.422c0,0-1.092-1.596-1.135-4.035h-3.321c-0.042,2.439-1.136,4.035-1.136,4.035
		l2.481,0.422v0.125l0.335-0.041l0.337,0.041v-0.125H142.529z M142.529,196.104"/>
	<path fill="#FFD15C" d="M146.355,190.721c0,3.346-1.92,6.057-4.288,6.057c-2.369,0-4.289-2.711-4.289-6.057
		c0-3.344,1.92-6.055,4.289-6.055C144.436,184.666,146.355,187.377,146.355,190.721L146.355,190.721z M146.355,190.721"/>
	<path fill="#334B5E" d="M141.184,184.037c0,0,2.104,5.633,6.35,7.23l-1.555-6.096l-3.491-1.725L141.184,184.037z M141.184,184.037"
		/>
	<path fill="#334B5E" d="M142.361,184.078c0,0-3.111,4.582-5.298,5.635l0.589-3.533l2.061-1.934L142.361,184.078z M142.361,184.078"
		/>
	<path fill="#FFFFFF" d="M146.439,198.289c-0.84,1.178-2.48,2.02-4.372,2.02s-3.532-0.799-4.374-2.02h-0.168
		c0.842,1.262,2.566,2.145,4.542,2.145s3.657-0.883,4.541-2.145H146.439z M146.439,198.289"/>
	<path fill="#334B5E" d="M142.487,200.477c0,0.211-0.084,1.01-0.294,1.01s-0.294-0.799-0.294-1.01v-0.168
		c0.042-0.211,0.126-0.295,0.294-0.295c0.125,0,0.252,0.041,0.294,0.252h-0.126c-0.043-0.168-0.084-0.168-0.168-0.168
		s-0.126,0-0.168,0.168v0.168c0,0.42,0.125,0.842,0.168,0.885c0.084-0.043,0.168-0.465,0.168-0.885v-0.043h0.126V200.477z
		 M142.487,200.477"/>
	<path fill="#E7E9ED" d="M143.034,202.031c0,0.465-0.376,0.842-0.841,0.842s-0.842-0.377-0.842-0.842c0-0.463,0.377-0.84,0.842-0.84
		S143.034,201.568,143.034,202.031L143.034,202.031z M143.034,202.031"/>
	<path fill="#C5C9CF" d="M142.277,201.695c0,0.186-0.037,0.336-0.084,0.336s-0.084-0.15-0.084-0.336s0.037-0.336,0.084-0.336
		S142.277,201.51,142.277,201.695L142.277,201.695z M142.277,201.695"/>
	<path fill="#C5C9CF" d="M142.277,202.367c0,0.188-0.037,0.338-0.084,0.338s-0.084-0.15-0.084-0.338
		c0-0.186,0.037-0.336,0.084-0.336S142.277,202.182,142.277,202.367L142.277,202.367z M142.277,202.367"/>
	<path fill="#C5C9CF" d="M142.908,202.031c0,0.047-0.15,0.086-0.337,0.086c-0.186,0-0.337-0.039-0.337-0.086
		s0.151-0.084,0.337-0.084C142.758,201.947,142.908,201.984,142.908,202.031L142.908,202.031z M142.908,202.031"/>
	<path fill="#C5C9CF" d="M142.193,202.031c0,0.047-0.15,0.086-0.336,0.086c-0.187,0-0.337-0.039-0.337-0.086s0.15-0.084,0.337-0.084
		C142.043,201.947,142.193,201.984,142.193,202.031L142.193,202.031z M142.193,202.031"/>
	<path fill="#C5C9CF" d="M142.688,201.539c0.032,0.031-0.047,0.166-0.179,0.297c-0.131,0.131-0.264,0.211-0.297,0.178
		c-0.033-0.031,0.047-0.164,0.178-0.297C142.522,201.586,142.655,201.506,142.688,201.539L142.688,201.539z M142.688,201.539"/>
	<path fill="#C5C9CF" d="M142.181,202.033c0.033,0.035-0.046,0.168-0.179,0.299c-0.131,0.131-0.264,0.211-0.297,0.178
		c-0.032-0.033,0.047-0.164,0.179-0.297C142.015,202.082,142.148,202.002,142.181,202.033L142.181,202.033z M142.181,202.033"/>
	<path fill="#C5C9CF" d="M142.693,202.514c-0.033,0.033-0.165-0.047-0.297-0.178c-0.131-0.131-0.211-0.264-0.18-0.297
		c0.034-0.033,0.167,0.047,0.299,0.178C142.646,202.348,142.727,202.48,142.693,202.514L142.693,202.514z M142.693,202.514"/>
	<path fill="#C5C9CF" d="M142.213,202.021c-0.033,0.033-0.166-0.047-0.297-0.18c-0.131-0.131-0.211-0.264-0.18-0.297
		c0.034-0.031,0.167,0.049,0.298,0.178C142.166,201.855,142.246,201.988,142.213,202.021L142.213,202.021z M142.213,202.021"/>
	<path fill="#F3715B" d="M139.377,195.682c0,0-2.986,10.639,3.531,20.899c0,0-6.098-3.533-7.357-15.013l2.018-0.293l-1.388-0.926
		C136.223,200.35,136.097,196.691,139.377,195.682L139.377,195.682z M139.377,195.682"/>
	<path fill="#F15640" d="M145.01,195.682c0,0,2.986,10.639-3.531,20.899c0,0,6.097-3.533,7.357-15.013l-2.018-0.293l1.388-0.926
		C148.164,200.35,148.29,196.691,145.01,195.682L145.01,195.682z M145.01,195.682"/>
</g>
<g>
	<path fill="#FFD15C" d="M237.578,141.598c0,14.746-11.953,26.699-26.699,26.699s-26.699-11.953-26.699-26.699
		c0-14.748,11.953-26.701,26.699-26.701S237.578,126.85,237.578,141.598L237.578,141.598z M237.578,141.598"/>
	<path fill="#FFFFFF" d="M221.012,165.438v0.883c-3.111,1.262-6.518,1.977-10.092,1.977s-7.021-0.715-10.133-1.977v-0.84
		c0-1.221,0.127-2.396,0.295-3.533l0.631-0.504l0.168-0.125l8.704-6.686l0.251-0.168l0.337,0.25l8.745,6.686l0.127,0.086
		l0.631,0.461v0.043C220.886,163.084,221.012,164.26,221.012,165.438L221.012,165.438z M221.012,165.438"/>
	<path fill="#334B5E" d="M203.016,135.668c-0.168-0.295-0.084-0.672,0.084-0.926c0.168-0.293,0.421-0.504,0.631-0.756
		c0.506-0.547,0.884-1.221,0.799-1.934c-0.041-0.379-0.252-0.715-0.378-1.094s-0.21-0.799,0-1.135
		c0.085-0.084,0.169-0.17,0.21-0.295c0.547-0.715,0.211-1.682,0.168-2.564c-0.084-1.472,0.631-2.859,1.304-4.164
		c0.462-0.883,0.968-1.85,1.808-2.396c0.506-0.336,1.137-0.504,1.725-0.629c1.598-0.254,3.322,0.041,4.625,1.008
		c1.009,0.758,1.725,1.85,2.187,3.027s0.715,2.439,0.925,3.658c0.126,0.715,0.211,1.557-0.21,2.145
		c-0.169,0.252-0.421,0.42-0.589,0.672c-0.21,0.336-0.294,0.715-0.378,1.094c-0.085,0.379-0.126,0.799,0,1.178
		c0.21,0.504,0.714,0.756,1.093,1.137c0.463,0.461,0.631,1.135,0.799,1.764c0.084,0.254,0.127,0.547,0.127,0.799
		c-0.084,0.674-0.716,1.094-1.346,1.348c-2.145,0.924-4.5,1.135-6.813,1.135c-0.631,0-1.262,0-1.85-0.211
		c-0.925-0.252-1.682-0.883-2.439-1.514C205.118,136.719,203.311,136.172,203.016,135.668L203.016,135.668z M203.016,135.668"/>
	<path fill="#F8B54D" d="M213.695,132.766l1.304,1.053v4.287l0.168,3.953l-3.994,0.883l-4.835-1.555v-4.625l0.841-3.197l0.884-0.799
		l2.816-0.293L213.695,132.766z M213.695,132.766"/>
	<path fill="#FFFFFF" d="M206.633,141.387c0,0,3.111,1.135,8.366,0l-2.48,11.059l-5.886,0.883V141.387z M206.633,141.387"/>
	<path fill="#F3715B" d="M200.998,137.225c0,0-3.279,9.166,0.756,24.344l1.851-4.623c0,0-0.925-10.43,0.632-12.615l-1.01-6.014
		L200.998,137.225z M200.998,137.225"/>
	<path fill="#F15640" d="M208.063,132.766c0,0-1.893,2.775-7.064,4.459c0,0,7.064,8.955,0,24.598c0,0,2.858,4.752,7.064,5.424
		c0,0,2.69-12.992,3.531-13.58l-3.658-5.51l-1.303-6.729l0.588-6.559L208.063,132.766z M208.063,132.766"/>
	<path fill="#F15640" d="M220.76,137.225c0,0,3.279,9.166-0.757,24.344l-1.85-4.623c0,0,0.925-10.43-0.632-12.615l1.01-6.014
		L220.76,137.225z M220.76,137.225"/>
	<path fill="#F3715B" d="M213.695,132.766c0,0,1.893,2.775,7.064,4.459c0,0-7.064,8.955,0,24.598c0,0-2.859,4.752-7.064,5.424
		c0,0-2.691-12.992-3.531-13.58l3.658-5.51l1.303-6.729l-0.588-6.559L213.695,132.766z M213.695,132.766"/>
	<path fill="#F8B54D" d="M211.215,133.188l2.48-0.422c0,0-1.092-1.596-1.135-4.035h-3.321c-0.042,2.439-1.136,4.035-1.136,4.035
		l2.481,0.422v0.125l0.335-0.041l0.337,0.041v-0.125H211.215z M211.215,133.188"/>
	<path fill="#FFD15C" d="M215.041,127.805c0,3.346-1.92,6.057-4.288,6.057c-2.369,0-4.289-2.711-4.289-6.057
		c0-3.343,1.92-6.054,4.289-6.054C213.121,121.75,215.041,124.461,215.041,127.805L215.041,127.805z M215.041,127.805"/>
	<path fill="#334B5E" d="M209.869,121.122c0,0,2.104,5.632,6.35,7.23l-1.555-6.095l-3.491-1.725L209.869,121.122z M209.869,121.122"
		/>
	<path fill="#334B5E" d="M211.047,121.163c0,0-3.111,4.582-5.298,5.634l0.589-3.533l2.061-1.934L211.047,121.163z M211.047,121.163"
		/>
	<path fill="#FFFFFF" d="M215.125,135.373c-0.84,1.178-2.48,2.02-4.372,2.02s-3.532-0.799-4.374-2.02h-0.168
		c0.842,1.262,2.566,2.145,4.542,2.145s3.657-0.883,4.541-2.145H215.125z M215.125,135.373"/>
	<path fill="#334B5E" d="M211.173,137.561c0,0.211-0.084,1.01-0.294,1.01s-0.294-0.799-0.294-1.01v-0.168
		c0.042-0.211,0.126-0.295,0.294-0.295c0.125,0,0.252,0.041,0.294,0.252h-0.126c-0.043-0.168-0.084-0.168-0.168-0.168
		s-0.126,0-0.168,0.168v0.168c0,0.42,0.125,0.842,0.168,0.885c0.084-0.043,0.168-0.465,0.168-0.885v-0.043h0.126V137.561z
		 M211.173,137.561"/>
	<path fill="#E7E9ED" d="M211.72,139.115c0,0.465-0.376,0.842-0.841,0.842s-0.842-0.377-0.842-0.842c0-0.463,0.377-0.84,0.842-0.84
		S211.72,138.652,211.72,139.115L211.72,139.115z M211.72,139.115"/>
	<path fill="#C5C9CF" d="M210.963,138.779c0,0.186-0.037,0.336-0.084,0.336s-0.084-0.15-0.084-0.336s0.037-0.336,0.084-0.336
		S210.963,138.594,210.963,138.779L210.963,138.779z M210.963,138.779"/>
	<path fill="#C5C9CF" d="M210.963,139.451c0,0.188-0.037,0.338-0.084,0.338s-0.084-0.15-0.084-0.338
		c0-0.186,0.037-0.336,0.084-0.336S210.963,139.266,210.963,139.451L210.963,139.451z M210.963,139.451"/>
	<path fill="#C5C9CF" d="M211.594,139.115c0,0.047-0.15,0.086-0.337,0.086c-0.186,0-0.337-0.039-0.337-0.086
		s0.151-0.084,0.337-0.084C211.443,139.031,211.594,139.068,211.594,139.115L211.594,139.115z M211.594,139.115"/>
	<path fill="#C5C9CF" d="M210.879,139.115c0,0.047-0.15,0.086-0.336,0.086c-0.187,0-0.337-0.039-0.337-0.086s0.15-0.084,0.337-0.084
		C210.729,139.031,210.879,139.068,210.879,139.115L210.879,139.115z M210.879,139.115"/>
	<path fill="#C5C9CF" d="M211.374,138.623c0.032,0.031-0.047,0.166-0.179,0.297c-0.131,0.131-0.264,0.211-0.297,0.178
		c-0.033-0.031,0.047-0.164,0.178-0.297C211.208,138.67,211.341,138.59,211.374,138.623L211.374,138.623z M211.374,138.623"/>
	<path fill="#C5C9CF" d="M210.866,139.117c0.033,0.035-0.046,0.168-0.179,0.299c-0.131,0.131-0.264,0.211-0.297,0.178
		c-0.032-0.033,0.047-0.164,0.179-0.297C210.7,139.166,210.834,139.086,210.866,139.117L210.866,139.117z M210.866,139.117"/>
	<path fill="#C5C9CF" d="M211.379,139.598c-0.033,0.033-0.165-0.047-0.297-0.178c-0.131-0.131-0.211-0.264-0.18-0.297
		c0.034-0.033,0.167,0.047,0.299,0.178C211.332,139.432,211.412,139.564,211.379,139.598L211.379,139.598z M211.379,139.598"/>
	<path fill="#C5C9CF" d="M210.898,139.105c-0.033,0.033-0.166-0.047-0.297-0.18c-0.131-0.131-0.211-0.264-0.18-0.297
		c0.034-0.031,0.167,0.049,0.298,0.178C210.852,138.939,210.932,139.072,210.898,139.105L210.898,139.105z M210.898,139.105"/>
	<path fill="#F3715B" d="M208.063,132.766c0,0-2.986,10.639,3.531,20.9c0,0-6.098-3.533-7.357-15.014l2.018-0.293l-1.388-0.926
		C204.908,137.434,204.782,133.775,208.063,132.766L208.063,132.766z M208.063,132.766"/>
	<path fill="#F15640" d="M213.695,132.766c0,0,2.986,10.639-3.531,20.9c0,0,6.097-3.533,7.357-15.014l-2.018-0.293l1.388-0.926
		C216.85,137.434,216.976,133.775,213.695,132.766L213.695,132.766z M213.695,132.766"/>
</g>
<g>
	<g>
		<path fill="#64BC46" d="M27.101,136.207c-0.888-0.493-2.006-0.172-2.497,0.714l-3.408,6.132l-1.95-1.949
			c-0.717-0.717-1.879-0.717-2.596,0c-0.717,0.717-0.717,1.879,0,2.595l3.672,3.673c0.347,0.348,0.815,0.539,1.297,0.539
			c0.084,0,0.17-0.007,0.254-0.02c0.57-0.079,1.07-0.423,1.35-0.926l4.589-8.261C28.306,137.818,27.986,136.7,27.101,136.207
			L27.101,136.207z M27.101,136.207"/>
	</g>
</g>
</svg>
