<?xml version="1.0" encoding="utf-8"?>
<!-- Generator: Adobe Illustrator 16.0.0, SVG Export Plug-In . SVG Version: 6.00 Build 0)  -->
<!DOCTYPE svg PUBLIC "-//W3C//DTD SVG 1.1//EN" "http://www.w3.org/Graphics/SVG/1.1/DTD/svg11.dtd">
<svg version="1.1" id="Layer_1" xmlns="http://www.w3.org/2000/svg" xmlns:xlink="http://www.w3.org/1999/xlink" x="0px" y="0px"
	 width="250px" height="250px" viewBox="0 0 250 250" enable-background="new 0 0 250 250" xml:space="preserve">
<g>
	<path fill="#2A81BA" d="M97.91,74.114c0,14.67-11.893,26.563-26.564,26.563c-14.671,0-26.564-11.895-26.564-26.563
		c0-14.671,11.893-26.565,26.564-26.565C86.017,47.549,97.91,59.443,97.91,74.114L97.91,74.114z"/>
	<path fill="#E7E9ED" d="M71.471,85.534c-0.041,0-0.083,0.042-0.167,0.042c-0.042,0-0.083-0.042-0.167-0.042H71.471z"/>
	<path fill="#E7E9ED" d="M92.723,89.801c-4.811,6.566-12.634,10.877-21.419,10.877c-8.784,0-16.565-4.268-21.418-10.877
		c3.765-4.017,8.869-6.15,13.136-7.238c-0.376,3.054,1.213,7.154,1.254,7.028c1.59-3.681,6.986-4.015,6.986-4.015
		s5.397,0.292,7.029,4.015c0.042,0.084,1.631-3.974,1.255-7.028C83.854,83.651,88.958,85.785,92.723,89.801L92.723,89.801z"/>
	<path fill="#FFD15C" d="M77.915,79.76c0,0.544-0.335,3.431-6.443,5.773h-0.334c-6.108-2.343-6.442-5.229-6.442-5.773
		c0.042-1.087,0.293-2.175,0.753-3.179c1.673,1.883,3.682,3.138,5.856,3.138c2.134,0,4.184-1.213,5.857-3.138
		C77.621,77.585,77.915,78.673,77.915,79.76L77.915,79.76z"/>
	<path fill="#F15640" d="M74.944,86.496l-1.338,2.676h-4.602l-1.338-2.676c1.841-0.795,3.639-0.92,3.639-0.92
		S73.145,85.701,74.944,86.496L74.944,86.496z"/>
	<path fill="#F3715B" d="M67.581,100.427c1.214,0.167,2.468,0.251,3.765,0.251c1.255,0,2.51-0.084,3.765-0.251l-1.464-11.212h-4.602
		L67.581,100.427z"/>
	<path fill="#FFFFFF" d="M77.915,79.677c0,0,0.292,3.346-6.611,5.899c0,0,5.397,0.292,7.029,4.015
		C78.374,89.759,81.511,81.643,77.915,79.677L77.915,79.677z"/>
	<path fill="#FFFFFF" d="M64.695,79.677c-3.556,1.966-0.46,10.04-0.376,9.914c1.589-3.681,7.028-4.015,7.028-4.015
		C64.402,83.023,64.695,79.677,64.695,79.677L64.695,79.677z"/>
	<path fill="#F8B54D" d="M77.496,77.417c-1.757,1.882-3.849,3.096-6.192,3.096c-2.342,0-4.434-1.214-6.191-3.096
		c0.084-0.292,0.209-0.585,0.335-0.836c1.673,1.883,3.682,3.138,5.856,3.138c2.176,0,4.184-1.213,5.857-3.138
		C77.286,76.833,77.412,77.125,77.496,77.417L77.496,77.417z"/>
	<path fill="#FFD15C" d="M82.724,71.018c-0.877,1.464-2.216,2.342-3.22,2.174c-2.008,3.724-4.937,6.485-8.2,6.485
		c-3.263,0-6.191-2.803-8.199-6.485c-1.004,0.126-2.342-0.71-3.221-2.174c-1.046-1.715-1.088-3.599-0.083-4.226
		c0.251-0.125,0.501-0.208,0.795-0.167c0.669,1.715,1.589,2.761,1.589,2.761c-0.962-5.313,2.97-5.899,2.301-11.002
		c0,0,2.468,5.48,9.538,1.631l-0.544,1.046c9.873-2.217,6.568,9.412,6.485,9.705c1.129-1.423,1.84-2.845,2.259-4.142
		c0.167,0,0.376,0.084,0.501,0.167C83.812,67.379,83.771,69.303,82.724,71.018L82.724,71.018z"/>
	<path fill="#334B5E" d="M76.994,52.862c0.795-0.083,2.092,0.627,2.092,0.627c-3.556-4.059-9.37-1.464-9.37-1.464
		c1.965-1.674,3.723-1.506,3.723-1.506c-8.325-1.254-9.748,3.723-9.748,3.723c-0.376-0.585-0.376-1.421-0.334-1.84
		c-0.586,1.004,0.042,3.012,0.042,3.012c-0.585-1.464-2.635-1.213-2.635-1.213c1.757,0.292,2.05,1.38,2.05,1.38
		c-4.393,1.631-3.641,6.192-3.641,6.192l1.046-1.256c-1.296,4.979,2.008,8.827,2.008,8.827c-0.962-5.312,2.971-5.898,2.301-11.001
		c0,0,2.468,5.48,9.539,1.631l-0.544,1.046c9.998-2.259,6.484,9.747,6.484,9.747c3.556-4.518,3.012-9.161,3.012-9.161l0.418,1.673
		C84.565,55.75,76.994,52.862,76.994,52.862L76.994,52.862z"/>
</g>
<rect x="112.595" y="57.493" fill="#B2B3B3" width="29.958" height="11.04"/>
<rect x="147.193" y="57.493" fill="#B2B3B3" width="91.14" height="11.04"/>
<rect x="11.039" y="29.981" fill="#E2E2E2" width="117.59" height="11.04"/>
<rect x="135.236" y="29.981" fill="#E2E2E2" width="103.097" height="11.04"/>
<rect x="112.595" y="72.552" fill="#B2B3B3" width="125.738" height="7.443"/>
<rect x="112.595" y="83.291" fill="#B2B3B3" width="45.992" height="7.443"/>
<rect x="163.198" y="83.291" fill="#B2B3B3" width="49.817" height="7.443"/>
<rect x="216.232" y="83.291" fill="#B2B3B3" width="22.101" height="7.443"/>
<circle fill="#E8E8E8" stroke="#898989" stroke-width="2" stroke-miterlimit="10" cx="22.392" cy="141.511" r="11.039"/>
<rect x="112.909" y="124.892" fill="#B2B3B3" width="29.958" height="11.04"/>
<rect x="147.508" y="124.892" fill="#B2B3B3" width="91.139" height="11.04"/>
<rect x="112.909" y="139.95" fill="#B2B3B3" width="125.737" height="7.442"/>
<rect x="112.909" y="150.689" fill="#B2B3B3" width="45.991" height="7.442"/>
<rect x="163.512" y="150.689" fill="#B2B3B3" width="49.818" height="7.442"/>
<rect x="216.547" y="150.689" fill="#B2B3B3" width="22.1" height="7.442"/>
<circle fill="#E8E8E8" stroke="#898989" stroke-width="2" stroke-miterlimit="10" cx="22.392" cy="204.511" r="11.039"/>
<rect x="112.909" y="187.893" fill="#B2B3B3" width="29.958" height="11.039"/>
<rect x="147.508" y="187.893" fill="#B2B3B3" width="91.139" height="11.039"/>
<rect x="112.909" y="202.95" fill="#B2B3B3" width="125.737" height="7.442"/>
<rect x="112.909" y="213.689" fill="#B2B3B3" width="45.991" height="7.442"/>
<rect x="163.512" y="213.689" fill="#B2B3B3" width="49.818" height="7.442"/>
<rect x="216.547" y="213.689" fill="#B2B3B3" width="22.1" height="7.442"/>
<rect fill="#348EC1" width="250" height="23.802"/>
<text transform="matrix(1 0 0 1 11.3525 15.4229)" enable-background="new    "><tspan x="0" y="0" fill="#FFFFFF" font-family="'Oswald-Regular'" font-size="12">Create two or more  Elector</tspan><tspan x="126.305" y="0" fill="#FFFFFF" font-family="'Oswald-Regular'" font-size="12"> </tspan></text>
<g>
	<path fill="#F5846B" d="M98.068,141.512c0,14.873-12.058,26.93-26.931,26.93c-14.873,0-26.93-12.057-26.93-26.93
		c0-14.875,12.057-26.931,26.93-26.931C86.01,114.581,98.068,126.637,98.068,141.512L98.068,141.512z"/>
	<path fill="#8BD7F8" d="M71.264,153.047c-0.042,0-0.085,0.041-0.127,0.041s-0.084-0.041-0.127-0.041H71.264z"/>
	<path fill="#8BD7F8" d="M92.045,158.477c-4.919,6.064-12.468,9.965-20.908,9.965c-8.439,0-15.988-3.899-20.908-9.965
		c3.52-4.709,8.906-7.041,13.317-8.188c-0.339,2.799,1.102,6.533,1.145,6.447c1.485-3.394,6.446-3.689,6.446-3.689
		s4.962,0.297,6.405,3.689c0.042,0.086,1.526-3.648,1.145-6.447C83.14,151.436,88.568,153.768,92.045,158.477L92.045,158.477z"/>
	<path fill="#FFFFFF" d="M77.202,147.66v0.043c0,0.424-0.212,3.139-5.938,5.301H71.01c-5.725-2.162-5.938-4.877-5.938-5.301v-0.043
		c0-0.551,0.127-1.102,0.254-1.654c1.654,2.078,3.647,3.479,5.81,3.479c2.164,0,4.157-1.399,5.811-3.479
		C77.074,146.559,77.202,147.109,77.202,147.66L77.202,147.66z"/>
	<path fill="#56C0EA" d="M77.202,147.66c0,0,0.296,3.055-6.065,5.428c0,0,4.962,0.297,6.405,3.691
		C77.626,156.863,80.467,149.484,77.202,147.66L77.202,147.66z"/>
	<path fill="#56C0EA" d="M65.072,147.66c-3.266,1.824-0.424,9.203-0.339,9.076c1.484-3.394,6.404-3.689,6.404-3.689
		C64.775,150.715,65.072,147.66,65.072,147.66L65.072,147.66z"/>
	<path fill="#FFFFFF" d="M80.043,136.932c-0.381,2.629-1.526,5.09-3.435,6.953c-0.381,0.383-0.721,0.68-1.145,0.977l-0.679-2.161
		H67.49l-0.679,2.161c-1.356-1.018-4.198-3.858-4.241-6.53c-1.188-15.225,10.475-12.002,10.475-12.002
		C80.892,125.775,80.637,132.689,80.043,136.932L80.043,136.932z"/>
	<path fill="#FFFFFF" d="M81.612,139.688c-0.594,0.976-1.399,1.654-2.163,1.908c0.297-0.678,0.552-1.397,0.764-2.121v-0.043
		l0.508-1.906h-0.042c0.169-0.637,0.339-1.272,0.467-1.907c0.169,0,0.34,0.084,0.509,0.17
		C82.587,136.379,82.545,138.119,81.612,139.688L81.612,139.688z"/>
	<path fill="#FFFFFF" d="M62.825,141.596c-0.763-0.254-1.569-0.934-2.163-1.908c-0.975-1.567-0.975-3.309-0.042-3.858
		c0.085-0.041,0.127-0.084,0.212-0.084c0.509,1.991,1.103,3.478,1.23,3.772C62.273,140.197,62.528,140.918,62.825,141.596
		L62.825,141.596z"/>
	<path fill="#495D76" d="M75.759,122.087c0.34-3.902-5.853-3.647-5.853-3.647c-9.372,1.357-10.39,10.093-10.39,10.093l1.271-1.525
		c-1.994,4.367,1.018,11.875,1.273,12.467c1.569,5.217,5.047,10.01,9.075,10.01c4.029,0,7.507-4.793,9.076-10.01v-0.043
		c0.169-0.635,0.339-1.271,0.466-1.906h-0.042c0.849-3.395,1.781-6.83,1.781-6.83C84.835,118.524,75.759,122.087,75.759,122.087
		L75.759,122.087z M80.043,136.932c-0.381,2.629-1.526,5.09-3.435,6.953c-0.381,0.383-0.763,0.68-1.145,0.977l-0.679-2.12H67.49
		l-0.679,2.164c-1.356-1.021-2.502-2.419-3.435-4.029c-0.424-0.849-0.679-1.737-0.806-2.502
		c-1.188-15.226,10.475-12.002,10.475-12.002C80.892,125.775,80.637,132.689,80.043,136.932L80.043,136.932z"/>
	<path fill="#495D76" d="M75.759,122.087c0.34-3.902-5.853-3.647-5.853-3.647c-9.372,1.357-10.39,10.093-10.39,10.093l1.271-1.525
		c-1.994,4.367,1.018,11.875,1.273,12.467c1.569,5.217,5.047,10.01,9.075,10.01c4.029,0,7.507-4.793,9.076-10.01v-0.043
		c0.169-0.635,0.339-1.271,0.466-1.906h-0.042c0.849-3.395,1.781-6.83,1.781-6.83C84.835,118.524,75.759,122.087,75.759,122.087
		L75.759,122.087z M80.043,136.932c-0.381,2.629-1.526,5.09-3.435,6.953c-0.381,0.383-0.763,0.68-1.145,0.977l-0.679-2.12H67.49
		l-0.679,2.164c-1.356-1.021-2.502-2.419-3.435-4.029c-0.424-0.849-0.679-1.737-0.806-2.502
		c-1.188-15.226,10.475-12.002,10.475-12.002C80.892,125.775,80.637,132.689,80.043,136.932L80.043,136.932z"/>
	<path fill="#495D76" d="M75.759,122.087c0.34-3.902-5.853-3.647-5.853-3.647c-9.372,1.357-10.39,10.093-10.39,10.093l1.271-1.525
		c-1.994,4.367,1.018,11.875,1.273,12.467c1.569,5.217,5.047,10.01,9.075,10.01c4.029,0,7.507-4.793,9.076-10.01v-0.043
		c0.169-0.635,0.339-1.271,0.466-1.906h-0.042c0.849-3.395,1.781-6.83,1.781-6.83C84.835,118.524,75.759,122.087,75.759,122.087
		L75.759,122.087z M80.043,136.932c-0.381,2.629-1.526,5.09-3.435,6.953c-0.381,0.383-0.763,0.68-1.145,0.977l-0.679-2.12H67.49
		l-0.679,2.164c-1.356-1.021-4.198-3.859-4.241-6.531c-1.188-15.226,10.475-12.002,10.475-12.002
		C80.892,125.775,80.637,132.689,80.043,136.932L80.043,136.932z"/>
	<path fill="#FFFFFF" d="M68.168,144.182c0.721,0.808,1.781,1.357,2.968,1.357c1.188,0,2.248-0.508,2.969-1.357H68.168z"/>
</g>
<g>
	<path fill="#FFD15C" d="M96.534,204.512c0,14.745-11.954,26.699-26.7,26.699s-26.7-11.954-26.7-26.699
		c0-14.746,11.954-26.699,26.7-26.699S96.534,189.766,96.534,204.512L96.534,204.512z"/>
	<path fill="#FFFFFF" d="M79.967,228.352v0.883c-3.111,1.263-6.518,1.978-10.091,1.978c-3.574,0-7.021-0.715-10.133-1.978v-0.84
		c0-1.221,0.126-2.396,0.294-3.533l0.631-0.504l0.167-0.125l8.705-6.687l0.251-0.168l0.336,0.251l8.746,6.686L79,224.398
		l0.631,0.463v0.043C79.841,225.997,79.967,227.174,79.967,228.352L79.967,228.352z"/>
	<path fill="#334B5E" d="M61.971,198.582c-0.168-0.294-0.084-0.672,0.083-0.925c0.168-0.294,0.421-0.505,0.631-0.757
		c0.505-0.547,0.883-1.221,0.799-1.935c-0.042-0.379-0.252-0.715-0.378-1.094c-0.126-0.378-0.21-0.799,0-1.136
		c0.084-0.084,0.168-0.168,0.21-0.295c0.547-0.713,0.211-1.682,0.168-2.563c-0.084-1.472,0.631-2.858,1.303-4.163
		c0.462-0.883,0.967-1.85,1.808-2.396c0.505-0.336,1.136-0.504,1.724-0.629c1.598-0.254,3.322,0.041,4.625,1.009
		c1.008,0.757,1.724,1.85,2.186,3.026c0.462,1.178,0.715,2.438,0.924,3.658c0.126,0.715,0.211,1.557-0.209,2.145
		c-0.168,0.253-0.421,0.421-0.589,0.673c-0.21,0.336-0.294,0.715-0.378,1.094c-0.084,0.378-0.126,0.799,0,1.179
		c0.209,0.504,0.714,0.756,1.093,1.135c0.463,0.463,0.631,1.136,0.799,1.766c0.084,0.253,0.126,0.547,0.126,0.799
		c-0.084,0.674-0.715,1.094-1.345,1.348c-2.145,0.924-4.5,1.135-6.813,1.135c-0.63,0-1.261,0-1.85-0.211
		c-0.925-0.252-1.682-0.883-2.439-1.514C64.073,199.634,62.266,199.087,61.971,198.582L61.971,198.582z"/>
	<path fill="#F8B54D" d="M72.651,195.682l1.303,1.051v4.289l0.168,3.953l-3.994,0.883l-4.835-1.557v-4.625l0.841-3.195l0.883-0.799
		l2.817-0.295L72.651,195.682z"/>
	<path fill="#FFFFFF" d="M65.587,204.301c0,0,3.111,1.135,8.367,0l-2.48,11.059l-5.886,0.884L65.587,204.301L65.587,204.301z"/>
	<path fill="#F3715B" d="M59.953,200.139c0,0-3.279,9.166,0.757,24.344l1.85-4.623c0,0-0.924-10.428,0.631-12.614l-1.009-6.013
		L59.953,200.139z"/>
	<path fill="#F15640" d="M67.017,195.682c0,0-1.892,2.774-7.064,4.457c0,0,7.064,8.955,0,24.598c0,0,2.859,4.752,7.064,5.424
		c0,0,2.691-12.992,3.531-13.58l-3.658-5.51l-1.303-6.728l0.589-6.56L67.017,195.682z"/>
	<path fill="#F15640" d="M79.715,200.139c0,0,3.279,9.166-0.757,24.344l-1.85-4.623c0,0,0.924-10.428-0.631-12.614l1.01-6.013
		L79.715,200.139z"/>
	<path fill="#F3715B" d="M72.651,195.682c0,0,1.892,2.774,7.064,4.457c0,0-7.064,8.955,0,24.598c0,0-2.859,4.752-7.064,5.424
		c0,0-2.691-12.992-3.532-13.58l3.658-5.51l1.303-6.728l-0.589-6.56L72.651,195.682z"/>
	<path fill="#F8B54D" d="M70.17,196.104l2.481-0.422c0,0-1.093-1.598-1.135-4.037h-3.321c-0.042,2.439-1.135,4.037-1.135,4.037
		l2.481,0.422v0.125l0.335-0.043l0.336,0.043v-0.125H70.17z"/>
	<path fill="#FFD15C" d="M73.997,190.721c0,3.344-1.92,6.055-4.289,6.055s-4.289-2.711-4.289-6.055c0-3.345,1.92-6.056,4.289-6.056
		C72.076,184.665,73.997,187.376,73.997,190.721L73.997,190.721z"/>
	<path fill="#334B5E" d="M68.825,184.035c0,0,2.103,5.633,6.349,7.23l-1.555-6.097l-3.491-1.726L68.825,184.035z"/>
	<path fill="#334B5E" d="M70.002,184.077c0,0-3.111,4.582-5.298,5.634l0.589-3.531l2.06-1.936L70.002,184.077z"/>
	<path fill="#FFFFFF" d="M74.081,198.288c-0.841,1.178-2.48,2.019-4.373,2.019s-3.532-0.799-4.374-2.019h-0.168
		c0.841,1.261,2.565,2.146,4.542,2.146s3.658-0.885,4.541-2.146H74.081z"/>
	<path fill="#334B5E" d="M70.128,200.475c0,0.211-0.084,1.01-0.294,1.01s-0.294-0.799-0.294-1.01v-0.168
		c0.042-0.211,0.126-0.293,0.294-0.293c0.125,0,0.252,0.041,0.294,0.252h-0.126c-0.042-0.17-0.084-0.17-0.168-0.17
		s-0.126,0-0.168,0.17v0.168c0,0.42,0.125,0.84,0.168,0.883c0.084-0.043,0.168-0.463,0.168-0.883v-0.043h0.126V200.475z"/>
	<path fill="#E7E9ED" d="M70.675,202.029c0,0.466-0.376,0.842-0.841,0.842s-0.841-0.376-0.841-0.842c0-0.463,0.376-0.84,0.841-0.84
		S70.675,201.566,70.675,202.029L70.675,202.029z"/>
	<path fill="#C5C9CF" d="M69.918,201.693c0,0.187-0.037,0.336-0.084,0.336s-0.084-0.149-0.084-0.336s0.037-0.336,0.084-0.336
		S69.918,201.508,69.918,201.693L69.918,201.693z"/>
	<path fill="#C5C9CF" d="M69.918,202.366c0,0.187-0.037,0.337-0.084,0.337s-0.084-0.15-0.084-0.337s0.037-0.337,0.084-0.337
		S69.918,202.182,69.918,202.366L69.918,202.366z"/>
	<path fill="#C5C9CF" d="M70.548,202.029c0,0.047-0.15,0.086-0.336,0.086s-0.336-0.039-0.336-0.086s0.151-0.084,0.336-0.084
		C70.398,201.945,70.548,201.982,70.548,202.029L70.548,202.029z"/>
	<path fill="#C5C9CF" d="M69.834,202.029c0,0.047-0.151,0.086-0.336,0.086c-0.186,0-0.336-0.039-0.336-0.086s0.15-0.084,0.336-0.084
		C69.683,201.945,69.834,201.982,69.834,202.029L69.834,202.029z"/>
	<path fill="#C5C9CF" d="M70.329,201.538c0.032,0.03-0.047,0.165-0.179,0.296c-0.131,0.132-0.264,0.212-0.297,0.18
		c-0.033-0.033,0.047-0.166,0.178-0.298C70.162,201.584,70.296,201.504,70.329,201.538L70.329,201.538z"/>
	<path fill="#C5C9CF" d="M69.821,202.032c0.033,0.034-0.046,0.167-0.178,0.298c-0.131,0.132-0.265,0.212-0.297,0.179
		c-0.032-0.032,0.047-0.165,0.179-0.297C69.655,202.08,69.789,202.001,69.821,202.032L69.821,202.032z"/>
	<path fill="#C5C9CF" d="M70.334,202.514c-0.033,0.031-0.165-0.049-0.297-0.179c-0.131-0.132-0.211-0.265-0.179-0.298
		c0.034-0.033,0.167,0.047,0.298,0.178C70.287,202.348,70.367,202.479,70.334,202.514L70.334,202.514z"/>
	<path fill="#C5C9CF" d="M69.854,202.02c-0.033,0.033-0.166-0.047-0.297-0.179c-0.131-0.131-0.211-0.264-0.179-0.298
		c0.034-0.031,0.167,0.049,0.297,0.18C69.807,201.854,69.887,201.986,69.854,202.02L69.854,202.02z"/>
	<path fill="#F3715B" d="M67.017,195.682c0,0-2.986,10.639,3.531,20.897c0,0-6.097-3.532-7.357-15.013l2.018-0.293l-1.388-0.926
		C63.863,200.35,63.737,196.689,67.017,195.682L67.017,195.682z"/>
	<path fill="#F15640" d="M72.651,195.682c0,0,2.986,10.639-3.532,20.897c0,0,6.097-3.532,7.358-15.013l-2.018-0.293l1.388-0.926
		C75.805,200.35,75.931,196.689,72.651,195.682L72.651,195.682z"/>
</g>
<circle fill="none" stroke="#64BC46" stroke-miterlimit="10" cx="22.392" cy="74.113" r="11.039"/>
<g>
	<g>
		<path fill="#64BC46" d="M27.101,68.809c-0.888-0.493-2.006-0.172-2.497,0.714l-3.408,6.132l-1.95-1.949
			c-0.717-0.717-1.879-0.717-2.596,0c-0.717,0.717-0.717,1.879,0,2.595l3.672,3.673c0.347,0.348,0.815,0.539,1.297,0.539
			c0.084,0,0.17-0.007,0.254-0.02c0.57-0.079,1.07-0.423,1.35-0.926l4.589-8.261C28.306,70.42,27.986,69.302,27.101,68.809
			L27.101,68.809z"/>
	</g>
</g>
</svg>
