<?xml version="1.0" encoding="utf-8"?>
<!-- Generator: Adobe Illustrator 16.0.0, SVG Export Plug-In . SVG Version: 6.00 Build 0)  -->
<!DOCTYPE svg PUBLIC "-//W3C//DTD SVG 1.1//EN" "http://www.w3.org/Graphics/SVG/1.1/DTD/svg11.dtd">
<svg version="1.1" id="Layer_1" xmlns="http://www.w3.org/2000/svg" xmlns:xlink="http://www.w3.org/1999/xlink" x="0px" y="0px"
	 width="250px" height="250px" viewBox="0 0 250 250" enable-background="new 0 0 250 250" xml:space="preserve">
<rect x="44.207" y="57.493" fill="#B2B3B3" width="98.346" height="11.04"/>
<rect x="147.194" y="57.493" fill="#B2B3B3" width="91.139" height="11.04"/>
<rect x="11.039" y="29.981" fill="#E2E2E2" width="117.59" height="11.04"/>
<rect x="135.237" y="29.981" fill="#E2E2E2" width="103.096" height="11.04"/>
<rect x="44.207" y="72.552" fill="#B2B3B3" width="131.571" height="7.443"/>
<rect x="43.874" y="83.291" fill="#B2B3B3" width="45.992" height="7.443"/>
<rect x="93.38" y="83.291" fill="#B2B3B3" width="49.818" height="7.443"/>
<rect x="147.851" y="83.291" fill="#B2B3B3" width="22.101" height="7.443"/>
<circle fill="#E8E8E8" stroke="#898989" stroke-width="2" stroke-miterlimit="10" cx="22.392" cy="141.511" r="11.039"/>
<circle fill="#E8E8E8" stroke="#898989" stroke-width="2" stroke-miterlimit="10" cx="22.392" cy="74.511" r="11.039"/>
<rect fill="#348EC1" width="250" height="23.802"/>
<text transform="matrix(1 0 0 1 11.353 15.4229)" fill="#FFFFFF" font-family="'MyriadPro-Regular'" font-size="12">Create a simple poll</text>
<circle fill="none" stroke="#64BC46" stroke-miterlimit="10" cx="22.392" cy="204.113" r="11.039"/>
<g>
	<g>
		<path fill="#64BC46" d="M27.101,198.809c-0.888-0.492-2.006-0.172-2.497,0.715l-3.408,6.131l-1.95-1.949
			c-0.717-0.717-1.879-0.717-2.596,0c-0.717,0.717-0.717,1.879,0,2.596l3.672,3.672c0.347,0.348,0.815,0.539,1.297,0.539
			c0.084,0,0.17-0.006,0.254-0.02c0.57-0.078,1.07-0.422,1.35-0.926l4.589-8.26C28.306,200.42,27.986,199.303,27.101,198.809
			L27.101,198.809z M27.101,198.809"/>
	</g>
</g>
<rect x="43.73" y="124.89" fill="#B2B3B3" width="98.346" height="11.04"/>
<rect x="146.718" y="124.89" fill="#B2B3B3" width="91.139" height="11.04"/>
<rect x="43.73" y="139.949" fill="#B2B3B3" width="131.571" height="7.443"/>
<rect x="43.397" y="150.688" fill="#B2B3B3" width="45.992" height="7.443"/>
<rect x="92.903" y="150.688" fill="#B2B3B3" width="49.818" height="7.443"/>
<rect x="147.374" y="150.688" fill="#B2B3B3" width="22.101" height="7.443"/>
<rect x="43.73" y="187.891" fill="#B2B3B3" width="98.346" height="11.04"/>
<rect x="146.718" y="187.891" fill="#B2B3B3" width="91.139" height="11.04"/>
<rect x="43.73" y="202.95" fill="#B2B3B3" width="131.571" height="7.443"/>
<rect x="43.397" y="213.689" fill="#B2B3B3" width="45.992" height="7.443"/>
<rect x="92.903" y="213.689" fill="#B2B3B3" width="49.818" height="7.443"/>
<rect x="147.374" y="213.689" fill="#B2B3B3" width="22.101" height="7.443"/>
</svg>
