<?xml version="1.0" encoding="iso-8859-1"?>
<!-- Generator: Adobe Illustrator 19.0.0, SVG Export Plug-In . SVG Version: 6.00 Build 0)  -->
<svg xmlns="http://www.w3.org/2000/svg" xmlns:xlink="http://www.w3.org/1999/xlink" version="1.1" id="Layer_1" x="0px" y="0px" viewBox="0 0 512 512" style="enable-background:new 0 0 512 512;" xml:space="preserve" width="512px" height="512px">
<g>
	<g>
		<g>
			<path d="M412.305,206.61c-5.25-67.777-61.967-121.312-130.929-121.312c-69.01,0-125.759,53.612-130.939,121.455     c-42.122,5.148-74.858,41.205-74.858,84.778c0,4.754,0.389,9.469,1.161,14.112H60.416C27.102,305.643,0,332.796,0,366.173     c0,33.373,27.102,60.524,60.416,60.524h341.199c0.107,0.003,0.212,0.005,0.319,0.005c60.691,0,110.066-49.475,110.066-110.289     C512,259.103,468.152,211.862,412.305,206.61z M402.105,405.162c-0.106-0.003-0.209-0.005-0.313-0.005H60.416     c-21.437,0-38.876-17.489-38.876-38.986c0-21.498,17.44-38.987,38.876-38.987h30.174c3.494,0,6.771-1.695,8.79-4.548     c2.019-2.851,2.529-6.505,1.368-9.802c-2.407-6.835-3.628-14.001-3.628-21.302c0-35.217,28.576-63.868,63.7-63.868     c5.948,0,10.77-4.823,10.77-10.77c0-60.686,49.25-110.056,109.787-110.056s109.787,49.371,109.787,110.056     c0,5.947,4.822,10.77,10.77,10.77c48.813,0,88.526,39.812,88.526,88.749C490.46,365.293,450.839,405.07,402.105,405.162z" fill="#00bbd0"/>
			<path d="M301.515,152.654l0.317,0.1c1.055,0.326,2.122,0.48,3.169,0.48c4.596,0,8.836-2.98,10.264-7.608     c1.752-5.684-1.468-11.724-7.152-13.478l-0.21-0.068c-5.676-1.781-11.685,1.383-13.469,7.058     C292.65,144.814,295.84,150.871,301.515,152.654z" fill="#00bbd0"/>
			<path d="M273.804,150.003c5.911-0.663,10.165-5.992,9.501-11.904c-0.663-5.911-5.997-10.168-11.905-9.501     c-29.009,3.256-54.55,20.655-68.322,46.538c-2.795,5.251-0.802,11.773,4.449,14.566c1.612,0.857,3.344,1.264,5.049,1.264     c3.854,0,7.581-2.074,9.517-5.713C232.526,165.645,251.858,152.467,273.804,150.003z" fill="#00bbd0"/>
			<path d="M334.793,255.64c0-29.507-23.962-53.513-53.417-53.513c-29.456,0-53.419,24.005-53.419,53.513     c0,16.49,7.674,32.019,20.427,42.084l-9.642,63.152c-0.473,3.105,0.431,6.262,2.477,8.643c2.045,2.382,5.031,3.752,8.17,3.752     h63.972c0.008,0,0.014,0,0.023,0c5.947,0,10.77-4.823,10.77-10.77c0-0.799-0.087-1.578-0.252-2.326l-9.535-62.451     C327.119,287.661,334.793,272.13,334.793,255.64z M297.298,283.347c-3.833,2.223-5.913,6.564-5.244,10.942l8.769,57.443h-38.893     l8.77-57.443c0.669-4.378-1.412-8.72-5.244-10.942c-9.843-5.707-15.957-16.324-15.957-27.707c0-17.629,14.3-31.973,31.879-31.973     c17.577,0,31.877,14.342,31.877,31.973C313.253,267.024,307.141,277.64,297.298,283.347z" fill="#00bbd0"/>
		</g>
	</g>
</g>
<g>
</g>
<g>
</g>
<g>
</g>
<g>
</g>
<g>
</g>
<g>
</g>
<g>
</g>
<g>
</g>
<g>
</g>
<g>
</g>
<g>
</g>
<g>
</g>
<g>
</g>
<g>
</g>
<g>
</g>
</svg>
